<?xml version="1.0" encoding="UTF-8" standalone="no"?>
<!DOCTYPE svg PUBLIC "-//W3C//DTD SVG 1.1//EN" "http://www.w3.org/Graphics/SVG/1.1/DTD/svg11.dtd">
<svg width="100%" height="100%" viewBox="0 0 782 964" version="1.1" xmlns="http://www.w3.org/2000/svg" xmlns:xlink="http://www.w3.org/1999/xlink" xml:space="preserve" xmlns:serif="http://www.serif.com/" style="fill-rule:evenodd;clip-rule:evenodd;stroke-miterlimit:10;">
    <g transform="matrix(1,0,0,1,-3699.3,-1552.32)">
        <g transform="matrix(-1,0,0,1,8066.66,812.818)">
            <rect x="3839.7" y="960.757" width="387.259" height="559.818" style="fill:none;stroke:rgb(178,178,178);stroke-width:11px;"/>
        </g>
        <g>
            <clipPath id="_clip1">
                <rect x="3839.7" y="1773.58" width="387.26" height="559.818" clip-rule="nonzero"/>
            </clipPath>
            <g clip-path="url(#_clip1)">
                <g transform="matrix(1,0,0,1,3964.49,2138.62)">
                    <path d="M0,-212.8C-12.904,-176.83 -35.557,-140.996 -33.407,-101.774C-31.098,-59.637 -15.58,-19.304 -11.512,22.188C-9.888,38.75 -17.572,69.799 -1.104,82.178C16.071,95.089 30.412,78.785 38.372,64.688C62.88,21.282 5.449,-24.227 33.159,-59.204C45.832,-75.2 75.37,-76.071 91.564,-89.495C106.656,-102.005 118.407,-120.591 122.453,-139.82C126.435,-158.742 124.511,-178.14 129.203,-197.291C133.28,-213.932 149.28,-241.085 147.552,-258.549C146.554,-268.628 131.433,-292.491 126.067,-298.643C118.893,-306.868 94.39,-307.889 80.5,-306.315C29.406,-300.525 14.693,-253.754 0,-212.8Z" style="fill:none;fill-rule:nonzero;stroke:rgb(178,178,178);stroke-width:2px;"/>
                </g>
                <g transform="matrix(1,0,0,1,3933.66,2150.49)">
                    <path d="M0,-195.365C-9.847,-181.939 -17.602,-165.573 -29.582,-153.857C-36.59,-147.005 -55.422,-139.77 -59.843,-132.199C-68.323,-117.676 -57.71,-95.234 -53.438,-80.539C-44.991,-51.481 -38.679,-24.709 -38.522,5.712C-38.362,36.604 -50.787,65.265 -50.889,95.322C-51.001,128.595 -32.938,161.114 -25.513,193.019C-21.358,210.873 -21.499,227.576 -21.221,246.103C-20.982,262.01 -26.918,295.132 -5.261,297.914C12.54,300.202 23.312,276.441 28.028,264.427C34.824,247.117 32.932,220.939 42.145,205.514C51.741,189.446 63.358,190.762 79.735,182.518C121.038,161.727 137.813,110.963 145.911,68.902C149.584,49.821 155.328,28.018 151.944,8.562C149.323,-6.511 134.454,-22.646 139.601,-38.224C146.775,-59.942 163.87,-51.998 179.604,-56.023C202.386,-61.851 213.811,-78.797 217.187,-102.184C221.957,-135.226 214.471,-161.166 228.351,-193.782C247.772,-239.423 272.272,-254.621 257.285,-309.047C248.932,-339.382 216.661,-393.735 260.63,-413.31C280.346,-422.089 288.967,-410.376 305.809,-406.219C331.175,-399.96 347.598,-411.842 373.319,-408.831C390.189,-406.856 405.608,-393.212 422.941,-400.497C447.055,-410.632 432.898,-424.755 434.146,-443.002C435.602,-464.325 455.679,-469.075 431.567,-484.089C413.133,-495.567 388.285,-483.924 369.704,-480.829C321.144,-472.742 298.413,-481.394 257.989,-445.127C224.1,-414.721 192.539,-381.214 157.431,-352.276C117.893,-319.688 58.936,-342.212 34.385,-284.593C26.761,-266.701 27.244,-243.529 18.6,-225.96C12.626,-213.819 7.895,-206.131 0,-195.365Z" style="fill:none;fill-rule:nonzero;stroke:rgb(178,178,178);stroke-width:2px;"/>
                </g>
                <g transform="matrix(-0.27755,0.960711,0.960711,0.27755,4042.03,1878.67)">
                    <path d="M10.166,-37.171C22.814,-39.805 49.348,-32.952 52.464,-18.531C57.896,6.61 24.805,2.323 10.166,1.006C-1.745,-0.066 -20.858,0.644 -22.037,-13.031C-23.052,-24.802 0.761,-35.212 10.166,-37.171Z" style="fill:none;fill-rule:nonzero;stroke:rgb(178,178,178);stroke-width:2px;"/>
                </g>
                <g transform="matrix(1,0,0,1,3982.04,1915.75)">
                    <path d="M0,16.446C-3.492,38.659 16.13,98.634 48.91,75.099C63.084,64.923 60.269,44.066 63.926,29.75C68.559,11.617 78.915,-3.835 83.435,-21.999C91.182,-53.142 77.869,-82.188 43.431,-64.266C16.253,-50.121 5.28,-17.143 0,16.446Z" style="fill:none;fill-rule:nonzero;stroke:rgb(178,178,178);stroke-width:2px;"/>
                </g>
                <g transform="matrix(1,0,0,1,3971.51,1849.58)">
                    <path d="M0,148.305C3.853,172.7 24.994,181.676 46.685,174.616C70.592,166.833 80.692,142.302 86.633,120.028C93.828,93.044 118.024,35.32 107.177,8.653C90.083,-33.371 25.271,4.827 17.049,38.729C7.691,77.303 -6.093,109.728 0,148.305Z" style="fill:none;fill-rule:nonzero;stroke:rgb(178,178,178);stroke-width:2px;"/>
                </g>
                <g transform="matrix(1,0,0,1,3950.29,1852.74)">
                    <path d="M0,164.097C5.33,183.891 14.734,203.939 32.01,205.166C30.327,205.047 63.987,199.027 65.232,198.794C81.377,195.79 90.414,193.955 100.939,179.934C116.239,159.55 116.281,128.222 122.984,104.206C127.915,86.539 137.345,70.253 141.245,52.425C156.403,-16.863 89.177,-41.069 47.261,10.89C31.617,30.282 29.517,52.33 21.006,74.591C10.17,102.932 -8.621,132.074 0,164.097Z" style="fill:none;fill-rule:nonzero;stroke:rgb(178,178,178);stroke-width:2px;"/>
                </g>
                <g transform="matrix(-0.909486,0.415735,0.415735,0.909486,4017.56,2172.27)">
                    <path d="M21.299,-78.652C30.031,-63.745 44.974,-44.186 49.414,-27.945C55.328,-6.318 46.564,18.079 21.299,-0.759C-0.793,-17.23 10.07,-38.48 12.163,-59.884C12.634,-64.716 8.871,-99.87 21.299,-78.652Z" style="fill:none;fill-rule:nonzero;stroke:rgb(178,178,178);stroke-width:2px;"/>
                </g>
                <g transform="matrix(1,0,0,1,3921.39,2061.64)">
                    <path d="M0,-1.229C-1.987,40.966 7.644,84.099 15.694,125.235C21.493,154.868 29.974,236.234 78.605,191.553C124.087,149.767 84.589,97.406 84.733,51.514C84.938,-13.526 152.517,18.727 183.343,-12.389C203.569,-32.807 177.038,-60.361 175.077,-81.593C172.571,-108.719 191.494,-127.329 201.494,-150.371C219.485,-191.831 189.362,-237.463 147.998,-236.75C85.914,-235.68 62.216,-203.06 40.786,-144.22C22.867,-95.018 2.531,-54.995 0,-1.229Z" style="fill:none;fill-rule:nonzero;stroke:rgb(178,178,178);stroke-width:2px;"/>
                </g>
                <g transform="matrix(1,0,0,1,3947.21,1837.57)">
                    <path d="M0,481.845C57.703,503.516 86.319,450.366 98.626,403.778C106.371,374.458 112.106,348.619 104.531,318.894C99.829,300.44 82.622,270.96 98.728,255.934C126.259,230.248 184.782,258.877 189.649,204.925C192.922,168.648 174.192,147.147 188.414,112.574C202.977,77.177 223.005,42.86 198.36,5.315C184.59,-15.664 159.294,-21.671 135.127,-19.121C116.246,-17.129 86.085,-16.615 69.387,-10.408C27.646,5.11 17.983,72.142 1.597,107.13C-13.632,139.646 -38.093,170.98 -47.854,205.542C-53.556,225.731 -49.67,244.063 -41.456,263.033C-28.41,293.162 -34.961,301.473 -38.326,333.214C-41.191,360.246 -30.596,393.327 -27.857,420.926C-25.783,441.833 -23.725,472.935 0,481.845Z" style="fill:none;fill-rule:nonzero;stroke:rgb(178,178,178);stroke-width:2px;"/>
                </g>
                <g transform="matrix(1,0,0,1,4124.93,1939.96)">
                    <path d="M0,257.98C-0.195,238.523 -18.381,214.516 -9.44,195.691C-1.243,178.43 21.198,177.086 34.842,165.683C65.652,139.931 61.587,87.719 74.522,52.449C87.174,17.955 107.883,-2.959 104.398,-42.052C100.899,-81.325 77.824,-116.763 111.628,-150.61C144.019,-183.042 188.918,-148.914 227.876,-166.232C246.399,-174.466 256.485,-187.832 259.854,-207.881C261.823,-219.606 262.561,-252.781 259.96,-263.175C246.889,-315.432 90.373,-281.766 55.094,-254.756C2.994,-214.87 -24.477,-132.628 -94.417,-121.799C-132.171,-115.954 -139.338,-114.803 -160.97,-78.888C-180.08,-47.162 -185.967,-6.158 -215.122,18.523C-251.378,49.213 -281.482,59.971 -286.894,114.29C-291.059,156.1 -264.213,185.939 -261.273,226.19C-258.175,268.611 -277.431,315.136 -292.369,353.734C-305.608,387.942 -329.376,419.796 -319.555,457.759C-301.417,527.859 -197.244,573.412 -148.25,509.982C-114.876,466.773 -87.761,417.244 -58.914,371.025C-39.359,339.693 0.4,297.882 0,257.98Z" style="fill:none;fill-rule:nonzero;stroke:rgb(178,178,178);stroke-width:2px;"/>
                </g>
                <g transform="matrix(1,0,0,1,4091.61,2296.24)">
                    <path d="M0,-543.483C-24.678,-517.949 -58.795,-506.867 -60.238,-506.414C-101.695,-493.388 -113.887,-511.396 -139.011,-497.145C-166.533,-481.535 -158.323,-456.285 -201.234,-410.429C-209.676,-401.409 -217.896,-392.732 -231.022,-383.952C-261.286,-363.709 -282.332,-366.525 -304.5,-358.135C-351.973,-340.167 -390.797,-276.021 -380.625,-230.378C-372.026,-191.795 -334.04,-191.67 -321.711,-146.971C-317.949,-133.334 -317.853,-120.178 -337.598,-53.635C-369.103,52.541 -389.339,86.416 -371.357,111.854C-362.538,124.329 -348.07,129.762 -327.006,137.669C-295.089,149.653 -283.236,142.392 -257.501,150.247C-216.616,162.726 -218.261,189.68 -184.686,203.204C-145.953,218.804 -90.888,204.229 -60.238,173.415C-46.165,159.267 -47.647,152.16 -2.648,30.433C8.943,-0.922 11.843,-8.028 19.196,-17.89C45.067,-52.586 74.549,-52.308 105.912,-82.099C126.328,-101.492 134.605,-121.337 146.954,-150.943C197.214,-271.442 117.107,-358.696 172.108,-439.555C191.115,-467.499 218.88,-484.345 227.051,-489.203C282.743,-522.312 320.355,-504.153 350.836,-532.229C379.708,-558.825 386.12,-612.11 371.356,-647.41C329.924,-746.481 97.28,-762.287 44.351,-685.141C16.756,-644.921 45.986,-591.065 0,-543.483Z" style="fill:none;fill-rule:nonzero;stroke:rgb(178,178,178);stroke-width:2px;"/>
                </g>
            </g>
        </g>
    </g>
</svg>
