<?xml version="1.0" encoding="UTF-8" standalone="no"?>
<!DOCTYPE svg PUBLIC "-//W3C//DTD SVG 1.1//EN" "http://www.w3.org/Graphics/SVG/1.1/DTD/svg11.dtd">
<svg width="100%" height="100%" viewBox="0 0 782 964" version="1.1" xmlns="http://www.w3.org/2000/svg" xmlns:xlink="http://www.w3.org/1999/xlink" xml:space="preserve" xmlns:serif="http://www.serif.com/" style="fill-rule:evenodd;clip-rule:evenodd;stroke-miterlimit:10;">
    <g transform="matrix(1,0,0,1,-3694.2,-126.535)">
        <g>
            <clipPath id="_clip1">
                <rect x="3834.6" y="347.795" width="387.26" height="559.818" clip-rule="nonzero"/>
            </clipPath>
            <g clip-path="url(#_clip1)">
                <g transform="matrix(1,0,0,1,3959.39,712.84)">
                    <path d="M0,-212.802C-12.904,-176.832 -35.557,-140.998 -33.407,-101.775C-31.099,-59.639 -15.581,-19.305 -11.512,22.186C-9.888,38.748 -17.572,69.797 -1.104,82.176C16.07,95.088 30.412,78.784 38.371,64.686C62.879,21.28 5.449,-24.229 33.158,-59.205C45.831,-75.202 75.369,-76.073 91.563,-89.497C106.655,-102.007 118.407,-120.592 122.453,-139.822C126.435,-158.744 124.511,-178.142 129.203,-197.292C133.28,-213.934 149.28,-241.087 147.552,-258.55C146.554,-268.63 131.433,-292.493 126.066,-298.645C118.892,-306.87 94.39,-307.89 80.499,-306.316C29.405,-300.526 14.692,-253.755 0,-212.802Z" style="fill:none;fill-rule:nonzero;stroke:black;stroke-width:2px;"/>
                </g>
                <g transform="matrix(1,0,0,1,3928.56,724.709)">
                    <path d="M0,-195.365C-9.846,-181.938 -17.601,-165.573 -29.581,-153.857C-36.589,-147.005 -55.421,-139.77 -59.842,-132.199C-68.322,-117.676 -57.71,-95.234 -53.438,-80.539C-44.99,-51.481 -38.679,-24.709 -38.521,5.713C-38.362,36.604 -50.786,65.265 -50.889,95.322C-51.001,128.595 -32.937,161.114 -25.513,193.019C-21.357,210.873 -21.498,227.576 -21.221,246.103C-20.981,262.01 -26.918,295.132 -5.26,297.915C12.541,300.202 23.313,276.441 28.029,264.427C34.824,247.117 32.932,220.939 42.145,205.515C51.742,189.446 63.358,190.763 79.736,182.519C121.038,161.727 137.813,110.963 145.911,68.903C149.585,49.822 155.329,28.019 151.945,8.562C149.324,-6.511 134.454,-22.645 139.601,-38.224C146.775,-59.942 163.87,-51.998 179.604,-56.023C202.387,-61.851 213.812,-78.797 217.187,-102.183C221.957,-135.226 214.472,-161.165 228.351,-193.781C247.773,-239.423 272.273,-254.621 257.286,-309.047C248.933,-339.381 216.662,-393.735 260.631,-413.31C280.347,-422.088 288.968,-410.375 305.81,-406.219C331.176,-399.96 347.599,-411.841 373.319,-408.831C390.19,-406.856 405.609,-393.212 422.941,-400.496C447.056,-410.632 432.899,-424.755 434.146,-443.001C435.603,-464.325 455.68,-469.074 431.568,-484.088C413.134,-495.567 388.286,-483.923 369.705,-480.828C321.145,-472.741 298.414,-481.394 257.99,-445.126C224.1,-414.72 192.539,-381.214 157.431,-352.276C117.894,-319.688 58.937,-342.212 34.385,-284.593C26.761,-266.7 27.244,-243.528 18.601,-225.96C12.627,-213.818 7.896,-206.13 0,-195.365Z" style="fill:none;fill-rule:nonzero;stroke:black;stroke-width:2px;"/>
                </g>
                <g transform="matrix(-0.277526,0.960718,0.960718,0.277526,4036.93,452.892)">
                    <path d="M10.167,-37.17C22.815,-39.804 49.348,-32.951 52.464,-18.531C57.897,6.609 24.806,2.323 10.167,1.007C-1.744,-0.066 -20.858,0.646 -22.037,-13.029C-23.052,-24.8 0.762,-35.211 10.167,-37.17Z" style="fill:none;fill-rule:nonzero;stroke:black;stroke-width:2px;"/>
                </g>
                <g transform="matrix(1,0,0,1,3976.94,489.968)">
                    <path d="M0,16.445C-3.491,38.659 16.13,98.634 48.91,75.098C63.085,64.922 60.27,44.065 63.927,29.749C68.56,11.616 78.916,-3.835 83.435,-22C91.182,-53.142 77.87,-82.189 43.432,-64.266C16.253,-50.122 5.28,-17.144 0,16.445Z" style="fill:none;fill-rule:nonzero;stroke:black;stroke-width:2px;"/>
                </g>
                <g transform="matrix(1,0,0,1,3966.41,423.798)">
                    <path d="M0,148.306C3.854,172.7 24.995,181.676 46.685,174.616C70.592,166.833 80.693,142.302 86.633,120.028C93.829,93.045 118.025,35.32 107.178,8.653C90.084,-33.37 25.272,4.827 17.049,38.729C7.692,77.304 -6.093,109.729 0,148.306Z" style="fill:none;fill-rule:nonzero;stroke:black;stroke-width:2px;"/>
                </g>
                <g transform="matrix(1,0,0,1,3945.19,426.961)">
                    <path d="M0,164.096C5.329,183.891 14.733,203.938 32.01,205.166C30.326,205.046 63.986,199.026 65.232,198.794C81.377,195.789 90.414,193.955 100.939,179.933C116.239,159.549 116.28,128.222 122.983,104.205C127.914,86.539 137.344,70.252 141.244,52.424C156.403,-16.864 89.177,-41.07 47.26,10.89C31.617,30.281 29.517,52.33 21.006,74.59C10.17,102.931 -8.622,132.074 0,164.096Z" style="fill:none;fill-rule:nonzero;stroke:black;stroke-width:2px;"/>
                </g>
                <g transform="matrix(-0.909479,0.41575,0.41575,0.909479,4012.46,746.491)">
                    <path d="M21.299,-78.651C30.031,-63.745 44.975,-44.186 49.415,-27.946C55.328,-6.318 46.565,18.079 21.299,-0.759C-0.791,-17.229 10.071,-38.48 12.163,-59.884C12.635,-64.716 8.87,-99.87 21.299,-78.651Z" style="fill:none;fill-rule:nonzero;stroke:black;stroke-width:2px;"/>
                </g>
                <g transform="matrix(1,0,0,1,3916.29,635.862)">
                    <path d="M0,-1.229C-1.986,40.966 7.644,84.099 15.694,125.236C21.494,154.868 29.974,236.234 78.606,191.553C124.088,149.767 84.59,97.406 84.734,51.514C84.939,-13.525 152.518,18.728 183.343,-12.389C203.569,-32.806 177.039,-60.36 175.077,-81.593C172.571,-108.719 191.495,-127.328 201.494,-150.371C219.485,-191.831 189.363,-237.463 147.999,-236.75C85.914,-235.68 62.217,-203.059 40.787,-144.22C22.867,-95.018 2.531,-54.995 0,-1.229Z" style="fill:none;fill-rule:nonzero;stroke:black;stroke-width:2px;"/>
                </g>
                <g transform="matrix(1,0,0,1,3942.12,411.786)">
                    <path d="M0,481.844C57.703,503.515 86.319,450.365 98.626,403.777C106.371,374.458 112.106,348.619 104.531,318.893C99.828,300.439 82.622,270.96 98.728,255.933C126.258,230.247 184.782,258.876 189.649,204.925C192.921,168.648 174.192,147.147 188.414,112.574C202.976,77.176 223.005,42.859 198.359,5.314C184.59,-15.664 159.294,-21.671 135.127,-19.121C116.246,-17.13 86.085,-16.615 69.387,-10.408C27.645,5.109 17.983,72.141 1.597,107.129C-13.633,139.645 -38.093,170.98 -47.854,205.541C-53.557,225.731 -49.671,244.062 -41.457,263.032C-28.411,293.162 -34.961,301.473 -38.326,333.213C-41.191,360.246 -30.597,393.326 -27.858,420.925C-25.784,441.832 -23.725,472.934 0,481.844Z" style="fill:none;fill-rule:nonzero;stroke:black;stroke-width:2px;"/>
                </g>
                <g transform="matrix(1,0,0,1,4119.83,514.176)">
                    <path d="M0,257.979C-0.195,238.522 -18.382,214.515 -9.44,195.69C-1.243,178.43 21.198,177.086 34.842,165.683C65.651,139.931 61.587,87.718 74.522,52.448C87.174,17.954 107.882,-2.959 104.398,-42.052C100.898,-81.326 77.824,-116.764 111.627,-150.611C144.019,-183.043 188.917,-148.914 227.875,-166.232C246.398,-174.467 256.485,-187.833 259.854,-207.882C261.823,-219.606 262.561,-252.782 259.96,-263.176C246.888,-315.433 90.373,-281.767 55.093,-254.757C2.994,-214.87 -24.478,-132.629 -94.418,-121.8C-132.171,-115.955 -139.338,-114.804 -160.97,-78.889C-180.08,-47.163 -185.967,-6.158 -215.123,18.522C-251.378,49.212 -281.483,59.97 -286.894,114.29C-291.059,156.099 -264.214,185.939 -261.273,226.189C-258.175,268.61 -277.432,315.135 -292.369,353.734C-305.608,387.942 -329.377,419.795 -319.555,457.758C-301.418,527.858 -197.244,573.412 -148.25,509.981C-114.876,466.772 -87.762,417.244 -58.915,371.024C-39.36,339.692 0.399,297.881 0,257.979Z" style="fill:none;fill-rule:nonzero;stroke:black;stroke-width:2px;"/>
                </g>
                <g transform="matrix(1,0,0,1,4086.51,870.463)">
                    <path d="M0,-543.484C-24.678,-517.95 -58.794,-506.868 -60.237,-506.415C-101.694,-493.39 -113.886,-511.398 -139.011,-497.147C-166.532,-481.536 -158.323,-456.285 -201.234,-410.431C-209.676,-401.41 -217.896,-392.733 -231.022,-383.952C-261.285,-363.709 -282.332,-366.526 -304.499,-358.136C-351.972,-340.168 -390.796,-276.022 -380.624,-230.379C-372.025,-191.795 -334.04,-191.671 -321.71,-146.973C-317.948,-133.335 -317.852,-120.18 -337.597,-53.637C-369.103,52.54 -389.338,86.416 -371.356,111.852C-362.537,124.328 -348.069,129.761 -327.006,137.669C-295.088,149.651 -283.235,142.391 -257.5,150.246C-216.615,162.725 -218.26,189.679 -184.686,203.202C-145.952,218.804 -90.888,204.227 -60.237,173.414C-46.164,159.266 -47.647,152.158 -2.647,30.432C8.944,-0.924 11.844,-8.029 19.197,-17.891C45.067,-52.586 74.55,-52.309 105.913,-82.101C126.329,-101.493 134.606,-121.338 146.954,-150.943C197.214,-271.443 117.107,-358.696 172.108,-439.557C191.116,-467.5 218.881,-484.346 227.051,-489.204C282.744,-522.314 320.356,-504.154 350.837,-532.231C379.709,-558.826 386.121,-612.11 371.357,-647.411C329.924,-746.482 97.28,-762.288 44.352,-685.142C16.757,-644.922 45.987,-591.067 0,-543.484Z" style="fill:none;fill-rule:nonzero;stroke:black;stroke-width:2px;"/>
                </g>
            </g>
        </g>
    </g>
</svg>
