<?xml version="1.0" encoding="UTF-8" standalone="no"?>
<!DOCTYPE svg PUBLIC "-//W3C//DTD SVG 1.1//EN" "http://www.w3.org/Graphics/SVG/1.1/DTD/svg11.dtd">
<svg width="100%" height="100%" viewBox="0 0 999 437" version="1.1" xmlns="http://www.w3.org/2000/svg" xmlns:xlink="http://www.w3.org/1999/xlink" xml:space="preserve" xmlns:serif="http://www.serif.com/" style="fill-rule:evenodd;clip-rule:evenodd;stroke-linejoin:round;stroke-miterlimit:2;">
    <g transform="matrix(1,0,0,1,-5051.51,-629.478)">
        <g transform="matrix(1,0,0,1,5310.16,1027.4)">
            <path d="M0,6.779L16.706,6.779C18.319,6.779 19.783,6.436 21.095,5.75C22.405,5.064 23.506,4.156 24.394,3.026C25.281,1.896 25.967,0.625 26.451,-0.787C26.936,-2.2 27.178,-3.632 27.178,-5.085C27.178,-6.618 26.896,-8.091 26.33,-9.503C25.765,-10.916 24.988,-12.167 24,-13.256C23.011,-14.346 21.852,-15.224 20.52,-15.89C19.187,-16.555 17.775,-16.888 16.282,-16.888L0,-16.888L0,6.779ZM-1.211,24.878L-1.211,-18.099L16.282,-18.099C18.018,-18.099 19.631,-17.726 21.125,-16.979C22.617,-16.233 23.899,-15.243 24.969,-14.013C26.037,-12.783 26.875,-11.39 27.48,-9.836C28.086,-8.283 28.389,-6.7 28.389,-5.085C28.389,-3.39 28.106,-1.756 27.541,-0.182C26.976,1.392 26.179,2.784 25.15,3.995C24.121,5.206 22.89,6.174 21.458,6.9C20.025,7.627 18.44,7.99 16.706,7.99L0,7.99L0,24.878L-1.211,24.878Z" style="fill-rule:nonzero;"/>
        </g>
        <g transform="matrix(1,0,0,1,5383.82,1008.09)">
            <path d="M0,44.188L-1.211,44.188L-1.211,26.695C-1.211,17.898 -4.116,13.5 -9.928,13.5C-11.38,13.5 -12.813,13.782 -14.226,14.346C-15.638,14.912 -16.939,15.678 -18.129,16.647C-19.319,17.615 -20.359,18.755 -21.247,20.067C-22.135,21.378 -22.78,22.8 -23.184,24.334L-23.184,44.188L-24.395,44.188L-24.395,0L-23.184,0L-23.184,20.884C-22.538,19.592 -21.741,18.413 -20.793,17.343C-19.845,16.273 -18.795,15.366 -17.646,14.619C-16.495,13.873 -15.265,13.297 -13.953,12.894C-12.642,12.491 -11.319,12.289 -9.988,12.289C-6.72,12.289 -4.237,13.5 -2.542,15.92C-0.848,18.341 0,21.933 0,26.695L0,44.188Z" style="fill-rule:nonzero;"/>
        </g>
        <g transform="matrix(1,0,0,1,5406.46,1036.48)">
            <path d="M0,0.301C0,2.319 0.363,4.236 1.089,6.052C1.815,7.867 2.793,9.451 4.024,10.803C5.255,12.155 6.697,13.225 8.353,14.012C10.007,14.798 11.782,15.192 13.68,15.192C15.535,15.192 17.301,14.788 18.976,13.982C20.649,13.174 22.123,12.084 23.395,10.712C24.666,9.34 25.664,7.746 26.391,5.931C27.117,4.114 27.48,2.178 27.48,0.119C27.48,-1.898 27.117,-3.814 26.391,-5.631C25.664,-7.446 24.675,-9.041 23.425,-10.413C22.174,-11.785 20.71,-12.874 19.036,-13.681C17.361,-14.488 15.596,-14.891 13.74,-14.891C11.883,-14.891 10.117,-14.488 8.443,-13.681C6.769,-12.874 5.306,-11.774 4.055,-10.383C2.804,-8.99 1.815,-7.376 1.089,-5.54C0.363,-3.704 0,-1.757 0,0.301M13.74,16.403C11.682,16.403 9.745,15.968 7.929,15.101C6.113,14.234 4.529,13.063 3.178,11.59C1.824,10.117 0.756,8.392 -0.03,6.415C-0.817,4.438 -1.211,2.36 -1.211,0.18C-1.211,-2.039 -0.817,-4.128 -0.03,-6.085C0.756,-8.042 1.835,-9.767 3.208,-11.26C4.579,-12.753 6.174,-13.933 7.989,-14.801C9.806,-15.669 11.722,-16.102 13.74,-16.102C15.757,-16.102 17.675,-15.669 19.49,-14.801C21.307,-13.933 22.89,-12.753 24.242,-11.26C25.594,-9.767 26.673,-8.042 27.48,-6.085C28.287,-4.128 28.691,-2.039 28.691,0.18C28.691,2.36 28.298,4.438 27.511,6.415C26.724,8.392 25.654,10.117 24.303,11.59C22.95,13.063 21.367,14.234 19.551,15.101C17.735,15.968 15.798,16.403 13.74,16.403" style="fill-rule:nonzero;"/>
        </g>
        <g transform="matrix(1,0,0,1,5468.75,1011.66)">
            <path d="M0,39.162C-0.605,39.566 -1.161,39.869 -1.665,40.07C-2.17,40.272 -2.765,40.464 -3.45,40.645C-4.137,40.827 -4.903,40.918 -5.75,40.918C-7.203,40.918 -8.475,40.474 -9.563,39.586C-10.653,38.698 -11.198,37.528 -11.198,36.075L-11.198,10.41L-15.738,10.41L-15.738,9.2L-11.198,9.2L-11.198,-1.756L-9.987,-1.756L-9.987,9.2L-2.421,9.2L-2.421,10.41L-9.987,10.41L-9.987,36.075C-9.907,37.246 -9.442,38.143 -8.596,38.769C-7.748,39.394 -6.8,39.707 -5.75,39.707C-5.064,39.707 -4.419,39.637 -3.813,39.495C-3.208,39.354 -2.674,39.192 -2.209,39.011C-1.746,38.83 -1.383,38.658 -1.12,38.497C-0.858,38.335 -0.707,38.234 -0.666,38.194L0,39.162Z" style="fill-rule:nonzero;"/>
        </g>
        <g transform="matrix(1,0,0,1,5486.42,1036.48)">
            <path d="M0,0.301C0,2.319 0.363,4.236 1.089,6.052C1.815,7.867 2.794,9.451 4.024,10.803C5.256,12.155 6.698,13.225 8.353,14.012C10.008,14.798 11.782,15.192 13.68,15.192C15.535,15.192 17.301,14.788 18.976,13.982C20.65,13.174 22.123,12.084 23.396,10.712C24.666,9.34 25.665,7.746 26.392,5.931C27.118,4.114 27.48,2.178 27.48,0.119C27.48,-1.898 27.118,-3.814 26.392,-5.631C25.665,-7.446 24.676,-9.041 23.426,-10.413C22.174,-11.785 20.711,-12.874 19.036,-13.681C17.361,-14.488 15.596,-14.891 13.74,-14.891C11.884,-14.891 10.118,-14.488 8.443,-13.681C6.769,-12.874 5.306,-11.774 4.055,-10.383C2.805,-8.99 1.815,-7.376 1.089,-5.54C0.363,-3.704 0,-1.757 0,0.301M13.74,16.403C11.682,16.403 9.745,15.968 7.929,15.101C6.113,14.234 4.529,13.063 3.178,11.59C1.825,10.117 0.756,8.392 -0.03,6.415C-0.817,4.438 -1.211,2.36 -1.211,0.18C-1.211,-2.039 -0.817,-4.128 -0.03,-6.085C0.756,-8.042 1.836,-9.767 3.208,-11.26C4.579,-12.753 6.174,-13.933 7.989,-14.801C9.806,-15.669 11.722,-16.102 13.74,-16.102C15.758,-16.102 17.675,-15.669 19.49,-14.801C21.307,-13.933 22.89,-12.753 24.242,-11.26C25.594,-9.767 26.673,-8.042 27.48,-6.085C28.287,-4.128 28.691,-2.039 28.691,0.18C28.691,2.36 28.298,4.438 27.511,6.415C26.725,8.392 25.654,10.117 24.303,11.59C22.95,13.063 21.367,14.234 19.551,15.101C17.735,15.968 15.798,16.403 13.74,16.403" style="fill-rule:nonzero;"/>
        </g>
        <g transform="matrix(1,0,0,1,5549.74,1034.48)">
            <path d="M0,17.19C1.492,17.19 2.956,16.898 4.389,16.312C5.82,15.727 7.102,14.97 8.232,14.043C9.361,13.115 10.3,12.086 11.047,10.956C11.793,9.826 12.207,8.696 12.288,7.566L12.288,-3.753C11.804,-5.085 11.107,-6.306 10.199,-7.415C9.292,-8.525 8.271,-9.484 7.143,-10.29C6.013,-11.098 4.782,-11.733 3.45,-12.198C2.119,-12.662 0.787,-12.893 -0.545,-12.893C-2.685,-12.893 -4.58,-12.44 -6.234,-11.532C-7.89,-10.623 -9.282,-9.454 -10.411,-8.021C-11.541,-6.588 -12.408,-4.974 -13.014,-3.178C-13.619,-1.382 -13.922,0.403 -13.922,2.178C-13.922,4.156 -13.559,6.043 -12.832,7.838C-12.105,9.634 -11.117,11.228 -9.866,12.62C-8.616,14.012 -7.143,15.122 -5.447,15.95C-3.753,16.777 -1.937,17.19 0,17.19M0,18.401C-2.179,18.401 -4.197,17.936 -6.053,17.008C-7.909,16.081 -9.514,14.849 -10.865,13.316C-12.218,11.783 -13.267,10.047 -14.013,8.111C-14.76,6.173 -15.133,4.196 -15.133,2.178C-15.133,0.081 -14.779,-1.948 -14.073,-3.905C-13.368,-5.862 -12.369,-7.597 -11.077,-9.11C-9.786,-10.623 -8.242,-11.834 -6.446,-12.742C-4.651,-13.65 -2.685,-14.104 -0.545,-14.104C0.867,-14.104 2.188,-13.902 3.42,-13.498C4.65,-13.095 5.801,-12.54 6.87,-11.834C7.938,-11.128 8.918,-10.3 9.806,-9.352C10.693,-8.404 11.521,-7.385 12.288,-6.295L12.288,-13.62L13.498,-13.62L13.498,19.127C13.498,21.185 13.114,22.98 12.349,24.514C11.581,26.046 10.552,27.318 9.262,28.328C7.969,29.336 6.486,30.084 4.812,30.567C3.138,31.051 1.412,31.294 -0.363,31.294C-4.076,31.294 -6.981,30.607 -9.079,29.236C-11.178,27.863 -12.813,26.046 -13.982,23.788L-12.832,23.424C-11.541,25.804 -9.775,27.51 -7.536,28.54C-5.296,29.569 -2.905,30.084 -0.363,30.084C1.371,30.084 3.006,29.85 4.54,29.387C6.073,28.922 7.415,28.226 8.565,27.298C9.715,26.37 10.623,25.23 11.289,23.878C11.955,22.526 12.288,20.943 12.288,19.127L12.288,11.258C11.601,12.307 10.805,13.266 9.896,14.133C8.989,15.001 7.999,15.757 6.931,16.403C5.861,17.049 4.741,17.544 3.571,17.886C2.4,18.228 1.211,18.401 0,18.401" style="fill-rule:nonzero;"/>
        </g>
        <g transform="matrix(1,0,0,1,5600.76,1051.07)">
            <path d="M0,-28.995C-2.987,-28.874 -5.56,-27.905 -7.718,-26.089C-9.877,-24.273 -11.38,-21.792 -12.228,-18.643L-12.228,1.21L-13.438,1.21L-13.438,-30.205L-12.228,-30.205L-12.228,-22.094C-11.138,-24.313 -9.676,-26.14 -7.839,-27.572C-6.004,-29.005 -4.056,-29.842 -1.998,-30.084C-1.595,-30.125 -1.222,-30.155 -0.878,-30.175C-0.535,-30.195 -0.242,-30.205 0,-30.205L0,-28.995Z" style="fill-rule:nonzero;"/>
        </g>
        <g transform="matrix(1,0,0,1,5627.82,1021.59)">
            <path d="M0,30.083C2.703,30.083 5.175,29.579 7.415,28.57C9.654,27.562 11.319,26.209 12.408,24.515C13.014,23.667 13.316,22.84 13.316,22.032L13.316,15.798C10.088,14.547 6.577,13.922 2.784,13.922C1.008,13.922 -0.596,14.104 -2.028,14.467C-3.461,14.829 -4.691,15.354 -5.721,16.04C-6.749,16.727 -7.546,17.543 -8.111,18.491C-8.677,19.439 -8.959,20.499 -8.959,21.67C-8.959,22.84 -8.727,23.939 -8.263,24.969C-7.799,25.997 -7.163,26.895 -6.355,27.662C-5.549,28.429 -4.601,29.023 -3.511,29.447C-2.422,29.871 -1.251,30.083 0,30.083M0,31.294C-1.413,31.294 -2.745,31.041 -3.995,30.537C-5.246,30.032 -6.325,29.347 -7.233,28.479C-8.142,27.611 -8.858,26.593 -9.383,25.422C-9.907,24.252 -10.169,23.001 -10.169,21.67C-10.169,20.338 -9.857,19.127 -9.231,18.038C-8.605,16.948 -7.718,16.01 -6.567,15.223C-5.418,14.437 -4.046,13.82 -2.452,13.377C-0.857,12.933 0.887,12.711 2.784,12.711C4.6,12.711 6.437,12.862 8.292,13.165C10.148,13.468 11.823,13.901 13.316,14.467L13.316,10.896C13.316,9.281 13.075,7.798 12.59,6.446C12.105,5.094 11.41,3.944 10.502,2.996C9.594,2.048 8.504,1.312 7.233,0.786C5.962,0.262 4.56,0 3.026,0C1.492,0 -0.142,0.333 -1.877,0.998C-3.612,1.664 -5.367,2.623 -7.143,3.874L-7.869,2.905C-3.834,0.161 -0.202,-1.211 3.026,-1.211C4.761,-1.211 6.346,-0.929 7.778,-0.363C9.21,0.201 10.421,1.009 11.41,2.058C12.398,3.106 13.166,4.378 13.71,5.871C14.255,7.364 14.527,9.039 14.527,10.896L14.527,28.268C14.527,29.074 14.85,29.478 15.495,29.478L15.495,30.688C15.051,30.688 14.77,30.648 14.648,30.567C14.244,30.406 13.922,30.113 13.68,29.689C13.438,29.266 13.316,28.792 13.316,28.268L13.316,25.361C11.863,27.259 9.967,28.722 7.627,29.75C5.286,30.779 2.744,31.294 0,31.294" style="fill-rule:nonzero;"/>
        </g>
        <g transform="matrix(1,0,0,1,5680.06,1033.88)">
            <path d="M0,17.796C2.058,17.796 3.904,17.362 5.538,16.495C7.173,15.627 8.574,14.487 9.745,13.074C10.915,11.662 11.813,10.059 12.438,8.263C13.063,6.467 13.377,4.641 13.377,2.784C13.377,0.808 13.014,-1.09 12.287,-2.905C11.562,-4.722 10.571,-6.325 9.321,-7.718C8.07,-9.109 6.598,-10.22 4.903,-11.047C3.208,-11.874 1.392,-12.287 -0.545,-12.287C-1.756,-12.287 -3.067,-12.025 -4.479,-11.501C-5.893,-10.975 -7.203,-10.269 -8.414,-9.382C-9.624,-8.494 -10.645,-7.465 -11.471,-6.295C-12.298,-5.125 -12.752,-3.914 -12.833,-2.663L-12.833,8.656C-12.268,9.947 -11.542,11.148 -10.653,12.258C-9.767,13.367 -8.768,14.325 -7.657,15.133C-6.548,15.94 -5.348,16.586 -4.056,17.069C-2.765,17.554 -1.413,17.796 0,17.796M0,19.007C-1.413,19.007 -2.745,18.795 -3.995,18.371C-5.246,17.947 -6.416,17.383 -7.506,16.676C-8.596,15.97 -9.585,15.143 -10.472,14.194C-11.36,13.246 -12.147,12.247 -12.833,11.198L-12.833,31.294L-14.043,31.294L-14.043,-13.014L-12.833,-13.014L-12.833,-6.355C-12.188,-7.404 -11.401,-8.363 -10.472,-9.23C-9.544,-10.099 -8.546,-10.854 -7.476,-11.501C-6.407,-12.146 -5.287,-12.641 -4.116,-12.983C-2.946,-13.326 -1.756,-13.498 -0.545,-13.498C1.674,-13.498 3.712,-13.024 5.568,-12.075C7.424,-11.127 9.019,-9.887 10.351,-8.352C11.683,-6.819 12.721,-5.084 13.468,-3.147C14.214,-1.21 14.588,0.767 14.588,2.784C14.588,4.923 14.233,6.972 13.528,8.929C12.821,10.886 11.834,12.61 10.563,14.104C9.291,15.597 7.757,16.787 5.962,17.675C4.166,18.562 2.179,19.007 0,19.007" style="fill-rule:nonzero;"/>
        </g>
        <g transform="matrix(1,0,0,1,5740.83,1008.09)">
            <path d="M0,44.188L-1.21,44.188L-1.21,26.695C-1.21,17.898 -4.115,13.5 -9.927,13.5C-11.379,13.5 -12.813,13.782 -14.225,14.346C-15.637,14.912 -16.938,15.678 -18.128,16.647C-19.319,17.615 -20.358,18.755 -21.246,20.067C-22.134,21.378 -22.779,22.8 -23.183,24.334L-23.183,44.188L-24.394,44.188L-24.394,0L-23.183,0L-23.183,20.884C-22.537,19.592 -21.74,18.413 -20.792,17.343C-19.844,16.273 -18.794,15.366 -17.645,14.619C-16.494,13.873 -15.264,13.297 -13.952,12.894C-12.641,12.491 -11.318,12.289 -9.987,12.289C-6.719,12.289 -4.236,13.5 -2.542,15.92C-0.847,18.341 0,21.933 0,26.695L0,44.188Z" style="fill-rule:nonzero;"/>
        </g>
        <g transform="matrix(1,0,0,1,5766.37,1022.07)">
            <path d="M0,42.493C0.687,42.493 1.281,42.463 1.786,42.402C2.29,42.342 2.643,42.169 2.845,41.888C2.966,41.766 3.107,41.533 3.269,41.191C3.43,40.847 3.692,40.263 4.056,39.435C4.419,38.607 4.923,37.458 5.569,35.985C6.214,34.512 7.062,32.585 8.111,30.205L-6.477,-1.21L-5.145,-1.21L8.717,28.691L21.852,-1.21L23.184,-1.21L4.479,41.464C3.995,42.512 3.329,43.158 2.481,43.4C1.674,43.601 0.848,43.703 0,43.703L0,42.493Z" style="fill-rule:nonzero;"/>
        </g>
        <g transform="matrix(1,0,0,1,5310.01,762.273)">
            <path d="M0,33.114C-11.923,44.831 -20.899,52.134 -34.505,59.265C-35.065,59.435 -35.486,59.775 -36.048,59.775L-36.89,59.604L-36.89,58.586C-36.89,56.548 -36.188,54.68 -35.627,52.813C-31.84,40.926 -24.826,32.264 -16.552,24.794C-12.203,20.886 -7.013,17.831 -3.367,17.831C0.421,17.831 2.945,24.963 2.945,28.698C2.945,30.227 2.104,31.246 0,33.114M-17.117,87.387C-16.23,85.764 -15.341,84.145 -14.447,82.53C-14.692,84.123 -14.959,85.702 -15.237,87.273C-15.863,87.314 -16.489,87.355 -17.117,87.387M-39.554,141.626C-35.936,125.606 -29.572,111.156 -22.378,97.254C-20.674,97.234 -18.971,97.181 -17.269,97.099C-21.293,114.078 -27.932,129.412 -39.554,141.626M146.288,27.001C146.709,27.51 146.99,28.02 146.99,28.53C146.99,29.039 146.709,29.378 146.429,29.718C141.66,37.358 135.348,42.623 128.055,46.189C132.684,37.699 138.574,30.906 146.288,27.001M188.788,23.774L187.946,23.943C187.244,24.113 186.684,24.794 185.982,25.302L179.811,31.076C170.834,39.397 162.138,48.057 152.881,56.039C146.85,61.302 140.538,65.887 133.524,69.114C130.019,70.642 126.371,72.002 122.585,72.002L121.883,72.002C119.639,71.832 118.797,71.493 118.797,69.963L119.078,67.757C119.499,65.039 120.2,62.492 120.901,59.944C121.603,57.737 122.585,56.548 124.688,55.869C135.067,51.963 144.044,45.341 150.776,34.642C151.899,32.774 152.46,30.906 152.46,29.039C152.46,27.341 152.039,25.641 151.058,23.774C148.673,19.359 145.587,17.321 141.66,17.321C140.678,17.321 139.696,17.321 138.574,17.661C134.703,18.792 131.218,21.162 128.108,24.168C127.45,24.52 126.91,25.162 126.373,25.812C124.409,27.679 122.586,29.718 120.763,31.586L89.063,66.738C85.417,70.812 81.209,74.379 76.58,77.096C75.739,77.605 74.616,78.454 73.635,78.454L72.793,78.284L72.793,77.774C72.793,76.246 73.354,74.888 73.775,73.53C77.422,62.492 82.472,52.472 88.222,42.793L95.937,29.378C96.497,28.53 96.919,27.679 96.919,26.661L96.638,25.471C95.796,23.094 93.411,21.736 91.167,21.736C90.326,21.736 89.484,21.906 88.783,22.415C81.349,27.679 74.056,33.454 66.621,39.227C61.572,43.133 56.383,47.039 50.772,50.095C48.949,51.114 46.845,52.303 44.601,52.303L43.759,52.303L43.759,51.453C43.759,49.586 44.461,48.226 45.162,46.869C49.229,38.209 53.858,30.057 59.188,22.586L65.64,13.075C66.481,11.547 67.042,10.359 67.042,9.341C67.042,8.151 66.342,6.962 64.799,5.434C63.536,4.245 62.554,3.566 61.572,3.566C60.591,3.566 59.608,4.076 58.206,5.265C52.032,10.691 46.936,17.051 42.78,24.256C42.427,24.614 42.114,25.177 41.377,25.981C39.133,28.53 36.607,30.736 34.083,32.774C24.686,40.586 14.446,46.529 4.208,52.134C3.927,52.303 3.646,52.472 3.226,52.472C2.945,52.472 2.665,52.303 2.385,51.963C7.714,42.114 13.886,34.133 19.075,24.794C19.496,23.774 19.776,22.925 19.776,22.246C19.776,20.208 17.392,18.001 15.429,18.001C13.044,18.001 10.239,21.566 7.994,23.604C7.013,23.433 6.873,22.586 6.452,21.906C1.964,13.755 -4.208,9.51 -10.801,9.51C-18.588,9.51 -27.295,15.932 -34.195,24.227C-34.841,24.619 -35.468,25.213 -36.045,25.812L-66.482,55.36C-74.478,63.002 -82.332,70.642 -91.027,77.096C-92.991,78.625 -95.096,80.153 -97.761,81.172L-97.761,80.492C-97.761,75.058 -96.218,70.303 -94.534,65.887C-89.205,51.453 -82.472,38.038 -71.952,28.02C-71.251,27.341 -70.689,26.661 -70.689,25.641C-70.689,25.133 -70.83,24.623 -71.11,24.113C-72.653,21.396 -75.739,19.868 -78.545,19.868C-79.947,19.868 -81.21,20.208 -82.332,20.886C-83.589,21.699 -84.781,22.769 -85.879,23.957C-88.343,24.41 -90.395,24.894 -92.989,25.641C-120.059,32.604 -146.849,41.945 -173.358,51.794C-188.226,57.227 -202.953,63.341 -217.821,68.944C-219.084,69.454 -220.346,70.303 -221.748,70.303L-222.87,70.134C-221.889,66.397 -220.065,63.172 -218.803,59.775C-217.541,56.379 -215.577,53.832 -213.192,51.624C-157.088,1.868 -107.015,-45 -52.032,-88.983C-49.788,-90.851 -46.843,-93.398 -46.843,-96.454C-46.843,-99.001 -49.087,-103.587 -51.051,-103.587C-51.752,-103.587 -52.453,-103.247 -53.715,-102.398C-58.765,-98.831 -63.814,-95.436 -68.863,-91.699C-112.063,-59.945 -152.6,-21.567 -196.782,17.661C-197.764,18.51 -198.605,19.868 -200.568,20.038C-194.397,7.642 -188.366,-3.907 -181.914,-15.452C-167.607,-40.925 -152.038,-65.378 -137.171,-90.341C-133.384,-96.625 -129.316,-102.907 -126.371,-109.87C-125.108,-112.417 -124.127,-115.134 -124.127,-118.191C-124.407,-126.003 -129.597,-132.795 -136.609,-132.795C-147.129,-132.455 -156.808,-128.889 -165.784,-122.096C-166.766,-121.417 -167.607,-120.399 -168.309,-119.38C-169.291,-118.531 -169.431,-117.852 -169.571,-116.492C-169.571,-114.795 -168.309,-112.587 -166.906,-112.587C-166.626,-112.587 -166.345,-112.756 -165.925,-113.097C-160.033,-117.852 -153.161,-119.549 -146.288,-121.586C-142.922,-122.776 -139.556,-123.455 -135.908,-123.624C-134.786,-123.624 -134.226,-123.285 -134.226,-122.437C-134.226,-122.096 -134.226,-121.586 -134.506,-121.077C-136.049,-117.342 -137.872,-113.946 -139.836,-110.55C-169.992,-61.643 -201.41,-11.377 -224.133,41.094C-225.114,43.133 -226.377,44.831 -228.061,46.359C-235.354,52.982 -242.647,59.944 -249.521,67.247C-253.167,70.812 -258.497,75.227 -258.497,80.662C-258.356,87.285 -254.149,92.04 -249.1,92.04L-246.574,91.87C-246.154,91.87 -245.733,91.87 -245.172,92.21L-249.239,107.153C-252.746,119.718 -256.112,132.456 -257.936,145.701C-258.356,147.909 -258.497,150.117 -258.497,152.323C-258.497,158.777 -256.533,164.719 -250.923,165.909C-250.222,165.909 -249.66,165.569 -249.66,164.719C-250.222,162.513 -250.923,161.324 -250.923,159.116C-250.923,157.419 -250.502,155.551 -250.222,153.682C-246.154,131.096 -239.562,109.701 -231.146,88.983C-230.164,86.945 -228.902,85.927 -227.078,85.077C-218.102,81.681 -209.266,78.284 -200.429,74.379C-162.606,57.343 -132.617,46.923 -93.529,34.516C-99.154,43.344 -103.672,53.03 -106.877,63.51C-107.999,67.077 -108.561,70.473 -108.981,74.04L-109.122,75.568C-109.122,83.718 -101.688,90.171 -95.797,90.171C-94.394,90.171 -93.132,89.832 -92.01,88.983C-89.345,87.114 -86.96,85.247 -84.575,82.87L-45.865,44.348C-46.964,47.595 -47.72,51.111 -48.11,55.36C-48.11,63.51 -40.536,70.134 -34.926,70.134C-28.894,70.134 -22.441,63.002 -15.71,58.926C-21,68.415 -26.468,77.652 -31.557,87.38C-35.175,87.186 -38.778,86.851 -42.359,86.382C-46.329,85.86 -50.59,84.763 -54.296,86.632C-59.815,89.413 -60.712,96.061 -60.747,100.783C-60.754,101.666 -61.056,106.432 -59.654,106.727C-58.169,107.04 -58.155,104.066 -58.149,103.31C-58.074,93.026 -45.678,95.787 -37.611,96.593C-37.148,96.638 -36.684,96.673 -36.22,96.715C-40.214,105.144 -43.822,114.078 -46.707,123.965C-48.53,130.758 -50.354,137.72 -50.635,145.361C-50.635,150.795 -46.006,155.38 -42.078,155.38C-38.151,155.38 -34.785,150.795 -31.84,146.889C-21.18,132.795 -14.167,116.153 -10.38,97.813C-10.291,97.404 -10.213,96.995 -10.125,96.585C2.163,95.474 14.852,93.728 19.528,83.303C20.407,81.343 20.288,78.683 19.795,76.663C19.644,76.04 18.815,73.043 17.955,74.96C15.204,81.093 9.671,83.568 2.219,85.026C-1.194,85.694 -4.647,86.223 -8.122,86.63C-6.99,80.698 -5.943,74.788 -4.909,68.944C-3.787,63.341 -1.824,63.002 2.385,60.964C14.522,55.086 25.79,47.338 36.291,38.148C36.115,38.62 35.935,39.089 35.765,39.566C34.923,41.604 34.361,43.812 34.361,46.189L34.643,48.906C36.045,55.869 41.095,60.625 46.564,60.625C47.967,60.625 49.51,60.284 50.912,59.604C53.297,58.416 55.682,57.057 57.926,55.36L69.988,46.02C70.549,45.679 70.97,44.831 71.812,44.831L72.372,45.001L69.146,51.794C68.164,54.171 67.042,56.379 66.201,58.926C64.378,63.341 63.255,67.926 63.115,72.85C63.115,75.227 63.396,77.605 64.378,79.812C66.481,84.228 69.707,86.605 73.214,86.605C74.897,86.605 76.58,86.095 78.264,85.077C83.874,81.681 88.643,76.926 93.271,71.662L111.643,50.665C110.74,53.512 110.128,56.511 109.82,59.604L109.681,61.643C109.681,72.341 116.974,80.832 124.548,80.832L125.39,80.832C128.896,80.832 132.263,79.643 135.348,77.774C143.062,73.19 150.355,67.586 157.088,61.134C166.626,52.134 176.024,42.964 185.421,33.793C187.104,32.264 188.788,30.396 190.471,28.53C190.892,28.02 191.172,27.51 191.172,26.831C191.172,26.491 191.032,26.151 190.892,25.641C190.33,24.623 189.629,23.774 188.788,23.774" style="fill-rule:nonzero;"/>
        </g>
        <g transform="matrix(1,0,0,1,5975.67,807.614)">
            <path d="M0,-1.02C-2.104,0.509 -4.209,1.867 -6.593,2.376L-6.873,1.357C-2.946,-10.02 2.524,-19.529 11.781,-25.303C13.886,-26.661 16.129,-27.34 18.374,-28.02L20.057,-28.189C23.423,-28.189 24.966,-25.473 26.509,-21.398L26.789,-20.547C26.789,-19.7 26.229,-19.19 25.667,-18.68C23.563,-17.321 21.6,-15.792 19.636,-14.435L0,-1.02ZM-164.522,-49.248C-164.943,-48.567 -165.224,-48.228 -165.644,-48.228C-166.064,-48.228 -166.346,-48.397 -166.766,-48.738C-169.712,-50.605 -172.657,-52.474 -175.603,-54.68C-177.426,-56.04 -178.127,-57.227 -178.127,-59.265C-177.146,-69.285 -169.432,-77.267 -162.138,-78.115C-161.016,-78.115 -160.314,-77.267 -159.894,-75.908C-159.332,-73.87 -159.332,-71.832 -159.332,-68.776C-159.473,-62.323 -161.857,-55.7 -164.522,-49.248M-250.641,-1.02C-252.744,0.509 -254.849,1.867 -257.233,2.376L-257.514,1.357C-253.587,-10.02 -248.116,-19.529 -238.858,-25.303C-236.755,-26.661 -234.511,-27.34 -232.267,-28.02L-230.584,-28.189C-227.218,-28.189 -225.675,-25.473 -224.132,-21.398L-223.852,-20.547C-223.852,-19.7 -224.412,-19.19 -224.973,-18.68C-227.077,-17.321 -229.041,-15.792 -231.004,-14.435L-250.641,-1.02ZM-339.283,27.849C-351.064,51.623 -363.687,74.718 -378.837,95.605C-386.972,106.813 -395.527,117.511 -406.047,125.662C-417.689,134.833 -432.416,142.984 -446.863,143.832L-447.004,143.832C-453.876,143.832 -458.505,135.342 -458.505,128.718L-458.364,127.021C-455.7,111.057 -445.32,97.983 -436.344,87.793C-409.273,57.397 -370.421,37.02 -335.355,18.849C-336.478,22.584 -338.021,25.132 -339.283,27.849M74.479,-19.36C74.198,-20.378 73.355,-21.057 72.515,-21.398L71.813,-21.567C71.112,-21.567 70.551,-21.057 69.989,-20.378C67.746,-18.171 65.501,-15.792 63.258,-13.416L31.559,21.736C28.052,25.642 24.124,28.868 19.776,31.584C18.514,32.433 17.111,33.284 15.568,33.284L15.568,32.264C15.568,30.396 16.271,29.038 16.69,27.509C20.478,16.811 25.387,6.792 30.997,-2.718C33.662,-6.962 36.047,-11.378 38.571,-15.792C39.133,-16.643 39.693,-17.492 39.693,-18.51L39.413,-19.7C38.852,-21.398 35.906,-23.945 34.083,-23.945L33.382,-23.775C32.82,-23.435 32.26,-23.435 31.839,-23.435C30.576,-23.435 29.875,-24.284 29.174,-25.982C28.332,-27.85 26.789,-29.209 25.526,-30.738C22.021,-34.643 17.111,-36.17 12.343,-36.17C7.573,-36.17 2.945,-34.643 -0.141,-32.435C-4.542,-29.192 -8.007,-25.134 -10.815,-20.499L-11.639,-19.36L-25.806,-1.02C-35.764,12.056 -45.583,25.301 -56.522,37.02C-61.853,42.793 -67.183,48.566 -73.494,52.982C-75.037,54.001 -76.439,55.359 -78.965,55.359C-78.264,52.132 -77.702,49.416 -76.86,46.699C-76.019,43.472 -74.896,40.246 -73.494,37.189C-69.006,27 -63.396,17.831 -57.926,8.491C-54.278,2.546 -50.492,-3.396 -47.826,-10.02C-46.985,-12.058 -46.564,-13.755 -46.564,-15.114C-46.564,-17.831 -47.826,-20.039 -50.492,-22.076C-51.613,-23.095 -52.876,-23.435 -53.998,-23.435C-55.12,-23.435 -56.242,-23.095 -57.225,-22.755C-61.151,-21.228 -64.799,-18.51 -68.165,-15.624C-74.616,-10.189 -80.087,-3.567 -85.697,3.056C-86.539,4.075 -87.24,5.434 -89.203,6.453C-88.082,4.245 -87.38,2.885 -86.539,1.528C-82.892,-5.095 -79.104,-11.717 -75.317,-18.34C-73.635,-21.567 -72.092,-24.793 -71.25,-28.53C-71.11,-29.548 -70.97,-30.568 -70.97,-31.416C-70.97,-33.794 -71.671,-36 -73.494,-38.039C-75.178,-39.907 -77.142,-41.265 -79.245,-41.265C-80.087,-41.265 -80.928,-40.926 -81.91,-40.586C-86.819,-38.379 -91.167,-35.492 -95.095,-31.586C-102.248,-24.793 -107.999,-16.472 -113.89,-8.151L-116.555,-4.585C-116.414,-6.284 -115.713,-7.473 -115.152,-8.831C-114.171,-11.04 -113.048,-13.246 -112.207,-15.454C-111.786,-16.643 -111.505,-17.662 -111.505,-18.51C-111.505,-20.039 -112.066,-21.057 -113.469,-22.416C-114.871,-23.945 -115.993,-24.793 -117.116,-24.793C-118.238,-24.793 -119.359,-23.945 -120.763,-22.076C-122.727,-19.529 -124.55,-16.982 -126.232,-14.095C-127.177,-12.398 -128.127,-10.7 -129.074,-8.998C-140.314,5.313 -153.245,19.913 -169.571,29.377C-169.291,25.642 -168.309,23.264 -167.468,20.887C-163.54,10.698 -159.192,0.848 -154.423,-8.661C-151.758,-14.095 -148.392,-20.888 -148.392,-26.661C-148.392,-32.266 -152.179,-37.36 -156.246,-40.586C-157.229,-41.435 -157.789,-42.285 -157.789,-43.303C-157.789,-43.812 -157.649,-44.493 -157.229,-45.34C-154.143,-51.964 -151.478,-59.775 -151.478,-67.586L-151.478,-69.964C-151.898,-79.304 -160.734,-87.285 -167.187,-87.285C-178.829,-86.776 -187.945,-76.587 -187.945,-66.058C-187.945,-57.398 -180.512,-50.266 -172.517,-45.171C-170.974,-44.153 -169.291,-43.643 -168.169,-41.775C-171.395,-34.982 -175.182,-28.699 -179.67,-22.926C-181.072,-21.228 -182.476,-19.7 -183.738,-17.831C-184.124,-17.364 -192.239,-8.292 -197.264,-2.458L-219.082,21.736C-222.589,25.642 -226.516,28.868 -230.864,31.584C-232.126,32.433 -233.529,33.284 -235.072,33.284L-235.072,32.264C-235.072,30.396 -234.37,29.038 -233.949,27.509C-230.163,16.811 -225.254,6.792 -219.643,-2.718C-216.979,-6.962 -214.594,-11.378 -212.069,-15.792C-211.508,-16.643 -210.947,-17.492 -210.947,-18.51L-211.228,-19.7C-211.788,-21.398 -214.733,-23.945 -216.558,-23.945L-217.259,-23.775C-217.819,-23.435 -218.381,-23.435 -218.802,-23.435C-220.063,-23.435 -220.766,-24.284 -221.467,-25.982C-222.309,-27.85 -223.852,-29.209 -225.113,-30.738C-228.62,-34.643 -233.529,-36.17 -238.298,-36.17C-243.066,-36.17 -247.695,-34.643 -250.781,-32.435C-254.861,-29.427 -258.137,-25.719 -260.832,-21.502C-261.221,-21.441 -261.61,-21.345 -261.999,-21.228C-278.27,-15.114 -291.594,-8.831 -307.864,-1.359C-309.127,-0.849 -310.248,0 -311.651,0L-311.651,-0.34C-311.651,-1.699 -311.09,-2.718 -310.669,-3.567C-298.046,-31.586 -289.21,-51.456 -280.514,-71.662C-277.428,-78.624 -274.201,-85.587 -271.677,-93.059C-271.256,-94.078 -270.976,-95.096 -270.976,-95.946C-270.976,-96.456 -270.976,-96.965 -271.256,-97.474C-272.519,-100.361 -274.201,-101.719 -275.885,-101.719C-277.146,-101.719 -278.55,-100.871 -279.952,-99.342C-296.924,-80.153 -313.334,-60.284 -329.886,-40.416C-340.404,-27.68 -350.925,-14.774 -362.146,-2.887C-368.457,3.736 -374.909,10.019 -382.624,14.263C-385.288,15.792 -388.234,16.641 -391.18,16.641L-392.021,16.641C-396.369,16.641 -396.51,10.528 -396.51,5.434C-396.229,-9.001 -392.442,-21.567 -387.813,-33.794C-376.873,-62.323 -362.426,-87.964 -344.052,-110.21C-331.849,-124.814 -318.104,-136.702 -301.553,-143.324C-297.064,-145.192 -292.575,-146.38 -287.947,-146.38C-285.142,-146.38 -282.337,-146.041 -279.392,-144.852C-269.012,-140.607 -266.768,-128.041 -266.066,-115.814C-266.066,-110.38 -267.188,-107.324 -267.749,-102.569C-267.749,-100.7 -266.347,-99.342 -264.804,-99.342C-263.962,-99.342 -263.121,-99.852 -262.56,-100.871C-260.035,-105.116 -259.755,-109.531 -259.755,-113.947C-259.755,-132.456 -266.487,-144.172 -279.531,-150.796C-284.861,-153.343 -290.051,-154.531 -295.241,-154.531C-301.553,-154.531 -307.864,-152.833 -314.176,-150.117C-338.862,-139.418 -358.92,-115.644 -375.049,-89.154C-387.112,-69.455 -397.351,-48.567 -403.803,-25.133C-406.047,-16.811 -407.45,-8.492 -407.45,0.169L-407.45,2.546C-407.029,16.641 -395.808,25.981 -386.691,25.981C-385.288,25.981 -384.026,25.642 -382.764,25.301C-369.72,21.056 -359.199,8.83 -350.504,-2.377C-333.252,-24.114 -315.719,-45.85 -298.046,-67.078C-297.064,-68.096 -296.223,-69.624 -294.96,-70.304L-294.68,-69.624C-294.68,-69.115 -294.96,-68.776 -295.101,-68.436L-329.324,6.962C-330.166,8.83 -331.288,9.678 -332.831,10.528C-361.865,24.283 -393.424,41.095 -418.25,59.434C-431.435,69.115 -443.637,80.152 -454.017,94.247C-460.328,102.738 -467.481,114.793 -467.481,125.153C-467.481,140.436 -451.913,153.511 -438.868,153.511C-436.764,153.511 -434.521,153.172 -432.275,152.663C-414.042,148.078 -398.053,138.228 -384.167,123.115C-370.981,108.851 -360.041,92.039 -349.662,74.548C-338.021,54.849 -327.781,34.131 -318.243,12.735C-316.981,10.358 -315.719,8.66 -313.475,7.641C-297.17,-0.01 -280.975,-7.927 -264.487,-14.762C-266.359,-10.689 -267.872,-6.298 -269.155,-1.699C-269.436,-0.68 -269.576,0.169 -269.576,1.188C-269.576,3.396 -268.875,5.434 -267.612,7.131C-264.526,11.376 -261.722,13.245 -258.636,13.245C-256.953,13.245 -255.129,12.735 -253.166,11.547C-250.641,10.019 -248.396,8.15 -246.152,6.453C-242.506,3.736 -238.999,0.848 -235.492,-2.039L-235.072,-1.529C-235.633,0 -236.334,1.357 -237.035,2.885C-239.7,8.32 -242.226,13.753 -243.768,19.868C-244.329,22.416 -244.609,24.962 -244.89,27.679L-244.89,28.699C-244.89,35.321 -239.841,41.604 -234.23,41.604C-232.828,41.604 -231.425,41.095 -230.022,40.246C-224.271,36.34 -219.223,31.584 -214.453,26.152C-209.965,21.226 -205.617,15.961 -201.129,10.868L-193.674,2.913C-189.091,-1.437 -181.851,-9.624 -178.571,-13.203L-177.293,-14.567C-177.254,-14.606 -177.209,-14.653 -177.176,-14.687C-177.131,-14.734 -177.089,-14.784 -177.045,-14.832L-176.768,-15.128C-176.74,-15.155 -176.721,-15.191 -176.695,-15.219C-170.85,-21.589 -165.675,-28.895 -161.717,-36C-161.296,-36.68 -160.875,-37.02 -160.455,-37.02C-158.771,-37.02 -156.948,-34.472 -156.948,-32.266C-156.948,-28.02 -160.595,-21.737 -163.4,-17.321C-168.729,-8.661 -173.078,0.509 -176.725,10.358C-178.408,14.943 -179.67,19.698 -179.95,24.792C-179.95,32.604 -174.761,38.039 -170.132,38.039C-164.382,38.039 -155.825,29.377 -149.935,23.264C-146.425,19.679 -143.079,15.879 -139.821,11.968C-142.246,17.376 -144.511,22.799 -145.729,28.699C-146.01,30.057 -146.149,31.246 -146.149,32.264C-146.149,36.169 -144.467,38.887 -140.96,40.924C-140.118,41.434 -139.277,41.773 -138.436,41.773C-137.454,41.773 -136.472,41.264 -135.63,40.246C-133.807,38.208 -132.264,36.169 -130.721,33.961C-123.708,22.584 -116.835,11.207 -109.682,0C-103.65,-9.511 -97.059,-18.85 -89.063,-26.322C-87.38,-27.85 -85.837,-29.378 -83.594,-30.058C-84.294,-27.68 -85.417,-25.812 -86.539,-23.945C-90.186,-17.321 -94.112,-10.699 -97.76,-4.077C-100.564,1.018 -103.09,6.453 -104.212,12.566C-104.353,13.753 -104.492,14.774 -104.492,15.792C-104.492,19.698 -102.949,22.416 -99.724,24.792C-98.741,25.471 -97.9,25.981 -97.059,25.981C-95.937,25.981 -94.955,25.471 -93.973,24.453C-92.009,22.416 -90.186,20.208 -88.362,18C-83.874,12.226 -79.245,6.283 -74.616,0.679C-70.689,-4.077 -66.622,-8.322 -61.853,-11.717C-61.292,-12.058 -60.73,-12.567 -60.029,-12.567C-59.89,-12.567 -59.608,-12.567 -59.328,-12.397C-60.59,-9.511 -62.414,-7.473 -64.097,-4.924C-70.549,5.093 -77.001,15.113 -82.051,26.321C-85.557,34.471 -87.521,42.962 -87.521,52.132C-87.521,58.416 -85.276,62.491 -81.068,64.189C-79.946,64.699 -78.824,64.869 -77.843,64.869C-76.019,64.869 -74.196,64.189 -72.372,63.001C-67.323,59.605 -62.835,55.019 -58.627,50.094C-44.599,33.836 -31.698,16.462 -18.698,-0.862C-18.84,-0.188 -18.936,0.465 -18.936,1.188C-18.936,3.396 -18.234,5.434 -16.973,7.131C-13.887,11.376 -11.081,13.245 -7.995,13.245C-6.312,13.245 -4.489,12.735 -2.525,11.547C0,10.019 2.243,8.15 4.488,6.453C8.135,3.736 11.641,0.848 15.147,-2.039L15.568,-1.529C15.007,0 14.307,1.357 13.604,2.885C10.939,8.32 8.415,13.753 6.872,19.868C6.312,22.416 6.03,24.962 5.75,27.679L5.75,28.699C5.75,35.321 10.8,41.604 16.41,41.604C17.812,41.604 19.216,41.095 20.617,40.246C26.368,36.34 31.418,31.584 36.187,26.152C40.675,21.226 45.023,15.961 49.512,10.868L73.216,-16.302C73.917,-16.982 74.619,-17.492 74.619,-18.51L74.479,-19.36Z" style="fill-rule:nonzero;"/>
        </g>
    </g>
</svg>
