<svg id="Capa_1" data-name="Capa 1" xmlns="http://www.w3.org/2000/svg" viewBox="0 0 1172.58 389.36"><defs><style>.cls-1{fill:#b2b2b2;}</style></defs><title>logo kique garma OK</title><path d="M285.22,188.87a5,5,0,0,0-2.8-.8c-1.65,0-3.13,1-4.61,2.79C274.19,195.25,273,201,272,206.22c0,5,4,9.56,7.74,9.56h.5c1.15-.19,1.81-.59,1.81-2,0-3.19,1.65-5.38,3.13-7.77,1.64-2.4,3.46-4.79,4.94-7.18,1.15-1.6,1.64-2.59,1.64-3.59,0-1.2-.65-2.19-2.14-3.59A15.64,15.64,0,0,0,285.22,188.87Z" transform="translate(-48.26 -49.91)"/><path d="M573.38,233.73l-1,.2a8,8,0,0,0-2.3,1.59l-7.25,6.78c-10.54,9.77-20.75,19.94-31.61,29.31-7.08,6.18-14.49,11.56-22.73,15.35-4.11,1.79-8.4,3.39-12.84,3.39h-.83c-2.63-.2-3.62-.6-3.62-2.4l.33-2.59a82.83,82.83,0,0,1,2.14-9.17c.82-2.59,2-4,4.45-4.78a60.15,60.15,0,0,0,30.63-24.92,12.77,12.77,0,0,0,2-6.58,13,13,0,0,0-1.64-6.18c-2.8-5.19-6.43-7.58-11-7.58a11.72,11.72,0,0,0-3.62.4,30.28,30.28,0,0,0-12.29,7.64,7.52,7.52,0,0,0-2,1.93c-2.31,2.19-4.45,4.59-6.59,6.78L456.3,284.17a62.08,62.08,0,0,1-14.65,12.16c-1,.6-2.31,1.59-3.46,1.59l-1-.2v-.59a16.53,16.53,0,0,1,1.16-5,181.66,181.66,0,0,1,17-36.08l9.05-15.75a5.73,5.73,0,0,0,1.16-3.19l-.33-1.4a6.84,6.84,0,0,0-6.43-4.38,4.68,4.68,0,0,0-2.8.79c-8.72,6.18-17.29,13-26,19.74a142.87,142.87,0,0,1-18.61,12.76c-2.14,1.2-4.61,2.59-7.25,2.59h-1v-1a11.18,11.18,0,0,1,1.64-5.38,182.69,182.69,0,0,1,16.47-28.51l7.57-11.16c1-1.8,1.65-3.19,1.65-4.39,0-1.39-.82-2.79-2.63-4.58-1.49-1.4-2.64-2.2-3.79-2.2s-2.31.6-3.95,2A87.67,87.67,0,0,0,402,234.29c-.42.42-.78,1.09-1.65,2a69.5,69.5,0,0,1-8.56,8c-11,9.17-23.06,16.15-35.08,22.73a2.09,2.09,0,0,1-1.15.4,1.35,1.35,0,0,1-1-.6c6.26-11.56,13.5-20.93,19.6-31.9a8.62,8.62,0,0,0,.82-3c0-2.39-2.8-5-5.1-5-2.8,0-6.1,4.19-8.73,6.58-1.15-.2-1.32-1.2-1.81-2C354.05,222,346.8,217,339.06,217c-9.14,0-19.36,7.54-27.46,17.28a11.71,11.71,0,0,0-2.18,1.86l-35.73,34.69c-9.38,9-18.61,17.94-28.82,25.52a30.28,30.28,0,0,1-7.9,4.78v-.79c0-6.38,1.81-12,3.79-17.15,6.25-16.95,14.16-32.7,26.51-44.46a3.82,3.82,0,0,0,1.48-2.79,3.63,3.63,0,0,0-.49-1.79,10.27,10.27,0,0,0-8.73-5,8.41,8.41,0,0,0-4.45,1.2,22.47,22.47,0,0,0-4.16,3.6,80.87,80.87,0,0,0-8.35,2c-31.78,8.17-63.23,19.14-94.35,30.7C130.76,273,113.47,280.18,96,286.76c-1.49.6-3,1.59-4.61,1.59l-1.32-.2c1.15-4.38,3.29-8.17,4.77-12.16a24.51,24.51,0,0,1,6.59-9.57C167.32,208,226.11,153,290.66,101.35c2.63-2.19,6.09-5.18,6.09-8.77,0-3-2.64-8.38-4.94-8.38-.82,0-1.65.4-3.13,1.4-5.93,4.19-11.86,8.17-17.78,12.56-50.72,37.28-98.31,82.34-150.18,128.39-1.15,1-2.14,2.59-4.45,2.79,7.25-14.55,14.33-28.11,21.9-41.66,16.8-29.91,35.08-58.62,52.53-87.93,4.45-7.37,9.22-14.75,12.68-22.92A21.83,21.83,0,0,0,206,67.06c-.33-9.17-6.43-17.15-14.66-17.15-12.35.4-23.71,4.59-34.25,12.56a12.54,12.54,0,0,0-3,3.19c-1.16,1-1.32,1.8-1.49,3.39,0,2,1.49,4.59,3.13,4.59a2,2,0,0,0,1.15-.6c6.92-5.58,15-7.58,23.06-10a41.94,41.94,0,0,1,12.18-2.39c1.32,0,2,.4,2,1.39a3.15,3.15,0,0,1-.33,1.6A102.2,102.2,0,0,1,187.57,76c-35.4,57.42-72.29,116.43-99,178A19.85,19.85,0,0,1,84,260.24c-8.57,7.78-17.13,15.95-25.2,24.53-4.28,4.18-10.54,9.36-10.54,15.74.17,7.78,5.11,13.36,11,13.36l3-.2a2.79,2.79,0,0,1,1.65.4l-4.78,17.55c-4.12,14.75-8.07,29.7-10.21,45.25a41.71,41.71,0,0,0-.66,7.78c0,7.57,2.31,14.55,8.9,16a1.31,1.31,0,0,0,1.48-1.4c-.66-2.59-1.48-4-1.48-6.58a45.72,45.72,0,0,1,.82-6.38,379.86,379.86,0,0,1,22.39-76,9,9,0,0,1,4.78-4.58c10.54-4,20.91-8,31.29-12.56,44.4-20,79.61-32.24,125.5-46.8a138.29,138.29,0,0,0-15.67,34,65.21,65.21,0,0,0-2.47,12.36l-.17,1.79c0,9.57,8.73,17.15,15.65,17.15a7.08,7.08,0,0,0,4.44-1.4,63.32,63.32,0,0,0,8.73-7.17l45.45-45.23a55.35,55.35,0,0,0-2.64,12.93c0,9.57,8.89,17.34,15.48,17.34,7.08,0,14.66-8.37,22.56-13.15-6.21,11.14-12.63,22-18.61,33.4q-6.36-.34-12.68-1.17c-4.66-.61-9.66-1.9-14,.29-6.48,3.27-7.53,11.07-7.58,16.62,0,1-.36,6.63,1.29,7s1.76-3.13,1.76-4c.09-12.07,14.65-8.83,24.12-7.88l1.63.14a213.86,213.86,0,0,0-12.31,32c-2.14,8-4.28,16.15-4.61,25.12,0,6.38,5.43,11.76,10,11.76s8.56-5.38,12-10c12.52-16.55,20.75-36.09,25.2-57.62.1-.48.19-1,.3-1.44,14.42-1.31,29.32-3.35,34.81-15.59a12.91,12.91,0,0,0,.31-7.8c-.18-.73-1.15-4.25-2.16-2-3.23,7.2-9.72,10.11-18.47,11.82q-6,1.17-12.14,1.88c1.33-7,2.55-13.9,3.77-20.76,1.32-6.58,3.62-7,8.56-9.37a179.32,179.32,0,0,0,39.81-26.79c-.21.56-.42,1.11-.62,1.67a20.19,20.19,0,0,0-1.65,7.77l.33,3.19c1.65,8.18,7.58,13.76,14,13.76a11.85,11.85,0,0,0,5.1-1.2,51.92,51.92,0,0,0,8.24-5l14.16-11c.66-.4,1.15-1.4,2.14-1.4l.66.2-3.79,8c-1.15,2.79-2.47,5.39-3.46,8.38a45.64,45.64,0,0,0-3.62,16.34,20,20,0,0,0,1.48,8.18c2.47,5.18,6.26,8,10.38,8a11.39,11.39,0,0,0,5.92-1.79c6.59-4,12.19-9.57,17.62-15.75l21.57-24.65a51.5,51.5,0,0,0-2.14,10.49l-.16,2.4c0,12.56,8.56,22.52,17.45,22.52h1a22.66,22.66,0,0,0,11.69-3.58,142.22,142.22,0,0,0,25.53-19.54c11.19-10.57,22.23-21.33,33.26-32.1,2-1.79,4-4,5.93-6.18a3,3,0,0,0,.82-2,5.7,5.7,0,0,0-.33-1.4C575.19,234.72,574.37,233.73,573.38,233.73Zm-49.89,3.79a2.94,2.94,0,0,1,.82,1.79,2.15,2.15,0,0,1-.66,1.4A51.46,51.46,0,0,1,502.08,260C507.51,250.08,514.43,242.1,523.49,237.52ZM305.31,372.09c4.24-18.81,11.71-35.77,20.16-52.1q3,0,6-.18C326.74,339.75,319,357.75,305.31,372.09Zm26.34-63.68c1-1.9,2.08-3.81,3.13-5.7-.29,1.87-.6,3.72-.93,5.57Zm20.09-63.72c-14,13.76-24.53,22.33-40.51,30.7a6.31,6.31,0,0,1-1.81.6l-1-.2V274.6a23.42,23.42,0,0,1,1.49-6.78c4.44-14,12.68-24.12,22.39-32.9,5.11-4.58,11.2-8.17,15.48-8.17,4.45,0,7.41,8.37,7.41,12.76C355.2,241.3,354.21,242.5,351.74,244.69Z" transform="translate(-48.26 -49.91)"/><path d="M1220.68,236.32a3.76,3.76,0,0,0-2.31-2.39l-.82-.2a3,3,0,0,0-2.14,1.39c-2.64,2.59-5.27,5.39-7.91,8.18l-37.21,41.27a64.21,64.21,0,0,1-13.83,11.56,9.22,9.22,0,0,1-4.94,2v-1.19c0-2.2.82-3.79,1.31-5.59a203.24,203.24,0,0,1,16.8-35.48c3.13-5,5.93-10.17,8.89-15.35a6,6,0,0,0,1.32-3.19l-.33-1.4c-.66-2-4.12-5-6.26-5l-.82.2a3.34,3.34,0,0,1-1.81.39c-1.48,0-2.31-1-3.13-3-1-2.19-2.8-3.78-4.28-5.58-4.12-4.58-9.88-6.38-15.48-6.38a26.12,26.12,0,0,0-14.66,4.39,48.08,48.08,0,0,0-12.53,14l-1,1.34-16.63,21.53c-11.69,15.35-23.22,30.9-36.06,44.66-6.26,6.78-12.51,13.56-19.92,18.74-1.82,1.2-3.46,2.79-6.43,2.79.83-3.79,1.49-7,2.47-10.17a68,68,0,0,1,4-11.16c5.26-12,11.85-22.73,18.27-33.69,4.28-7,8.73-14,11.86-21.74a16.31,16.31,0,0,0,1.48-6c0-3.19-1.48-5.78-4.61-8.17a6,6,0,0,0-4.12-1.6,11.8,11.8,0,0,0-3.78.8c-4.61,1.8-8.9,5-12.85,8.38-7.57,6.38-14,14.15-20.58,21.93-1,1.19-1.81,2.79-4.12,4,1.32-2.59,2.14-4.18,3.13-5.78,4.28-7.77,8.73-15.55,13.17-23.32a48.7,48.7,0,0,0,4.78-12,27.46,27.46,0,0,0,.33-3.38,11.15,11.15,0,0,0-3-7.78c-2-2.19-4.29-3.79-6.76-3.79a10.17,10.17,0,0,0-3.13.8A51.3,51.3,0,0,0,1021.6,222c-8.4,8-15.15,17.74-22.07,27.51l-3.13,4.18a15.62,15.62,0,0,1,1.65-5c1.15-2.59,2.47-5.18,3.46-7.77a11.65,11.65,0,0,0,.82-3.59c0-1.8-.66-3-2.31-4.59-1.64-1.79-3-2.79-4.28-2.79s-2.63,1-4.28,3.19A87.84,87.84,0,0,0,985,242.5c-1.11,2-2.22,4-3.34,6-13.19,16.8-28.37,34-47.54,45.06a34.14,34.14,0,0,1,2.47-10q6.92-17.94,15.31-34.69c3.13-6.38,7.08-14.36,7.08-21.13,0-6.58-4.44-12.56-9.22-16.35a4.26,4.26,0,0,1-1.81-3.19,5.5,5.5,0,0,1,.66-2.39c3.62-7.78,6.75-16.95,6.75-26.12v-2.79c-.49-11-10.87-20.34-18.44-20.34-13.67.6-24.37,12.56-24.37,24.92,0,10.17,8.73,18.54,18.11,24.53,1.81,1.19,3.79,1.79,5.11,4a118.68,118.68,0,0,1-13.51,22.13c-1.64,2-3.29,3.79-4.77,6-.46.55-10,11.2-15.88,18.05L876,284.57a63.73,63.73,0,0,1-13.83,11.56,9.19,9.19,0,0,1-4.94,2v-1.19c0-2.2.82-3.79,1.32-5.59a203.21,203.21,0,0,1,16.79-35.48c3.13-5,5.93-10.17,8.9-15.35a5.93,5.93,0,0,0,1.31-3.19l-.33-1.4c-.65-2-4.11-5-6.25-5l-.83.2a3.31,3.31,0,0,1-1.81.39c-1.48,0-2.3-1-3.13-3-1-2.19-2.8-3.78-4.28-5.58-4.11-4.58-9.88-6.38-15.48-6.38A26.06,26.06,0,0,0,838.82,221,47.27,47.27,0,0,0,827,233.8a10.92,10.92,0,0,0-1.37.33c-19.1,7.17-34.75,14.55-53.85,23.32-1.48.6-2.8,1.6-4.44,1.6v-.4a8.08,8.08,0,0,1,1.15-3.79c14.82-32.89,25.19-56.22,35.4-79.94,3.63-8.18,7.41-16.35,10.38-25.12a9.53,9.53,0,0,0,.82-3.39,3.5,3.5,0,0,0-.33-1.8c-1.48-3.39-3.46-5-5.43-5-1.49,0-3.13,1-4.78,2.79C784.65,165,765.38,188.27,746,211.6c-12.35,15-24.7,30.1-37.88,44.06-7.41,7.77-15,15.15-24,20.13a20.21,20.21,0,0,1-10,2.8h-1c-5.1,0-5.27-7.18-5.27-13.16.33-17,4.78-31.7,10.21-46.06,12.84-33.49,29.81-63.59,51.38-89.71,14.32-17.15,30.46-31.1,49.89-38.88a41.52,41.52,0,0,1,16-3.59A26,26,0,0,1,805.23,89c12.19,5,14.82,19.74,15.64,34.09,0,6.38-1.31,10-2,15.55a3.63,3.63,0,0,0,3.46,3.79,3.09,3.09,0,0,0,2.63-1.8c3-5,3.29-10.16,3.29-15.35,0-21.73-7.9-35.48-23.21-43.26a42.26,42.26,0,0,0-18.45-4.38c-7.41,0-14.82,2-22.23,5.18-29,12.56-52.53,40.47-71.46,71.57-14.17,23.13-26.19,47.65-33.76,75.16a113,113,0,0,0-4.28,29.71V262c.49,16.55,13.66,27.51,24.37,27.51a17.39,17.39,0,0,0,4.61-.8c15.31-5,27.66-19.34,37.87-32.49,20.26-25.52,40.84-51,61.59-76,1.15-1.2,2.14-3,3.62-3.79l.33.8a3.36,3.36,0,0,1-.49,1.39l-40.18,88.52a8.37,8.37,0,0,1-4.12,4.19c-34.09,16.15-71.14,35.88-100.28,57.41-15.48,11.37-29.81,24.33-42,40.87-7.41,10-15.81,24.13-15.81,36.29,0,17.94,18.28,33.29,33.59,33.29a36,36,0,0,0,7.74-1c21.41-5.39,40.18-16.95,56.48-34.69,15.48-16.75,28.33-36.49,40.51-57A712.34,712.34,0,0,0,759.62,274c1.48-2.79,3-4.79,5.6-6,19.14-9,38.15-18.28,57.51-26.3a101.94,101.94,0,0,0-5.48,15.33,12.1,12.1,0,0,0-.5,3.39,11.6,11.6,0,0,0,2.31,7c3.62,5,6.91,7.18,10.54,7.18a12.35,12.35,0,0,0,6.42-2,94.87,94.87,0,0,0,8.23-6c4.28-3.19,8.4-6.58,12.52-10l.49.6c-.66,1.8-1.48,3.39-2.3,5.19-3.13,6.38-6.1,12.75-7.91,19.93a80.62,80.62,0,0,0-1.32,9.17v1.2c0,7.77,5.93,15.15,12.52,15.15a9.69,9.69,0,0,0,4.94-1.59,97,97,0,0,0,18.28-16.55c5.27-5.78,10.37-12,15.64-17.94l8.75-9.34c5.38-5.11,13.88-14.72,17.73-18.92l1.5-1.6.14-.14a1.29,1.29,0,0,1,.16-.17l.32-.35.09-.11a131.72,131.72,0,0,0,17.58-24.4c.49-.8,1-1.19,1.48-1.19,2,0,4.12,3,4.12,5.58,0,5-4.28,12.36-7.58,17.54a182.79,182.79,0,0,0-15.64,32.5A58.33,58.33,0,0,0,922,288.15c0,9.18,6.1,15.56,11.53,15.56,6.75,0,16.8-10.17,23.71-17.35,4.12-4.21,8-8.67,11.88-13.26-2.85,6.35-5.51,12.71-6.94,19.64a20.93,20.93,0,0,0-.49,4.19c0,4.58,2,7.77,6.09,10.16a5.85,5.85,0,0,0,3,1,4.35,4.35,0,0,0,3.3-1.79,77.55,77.55,0,0,0,5.76-7.38c8.23-13.36,16.3-26.72,24.7-39.87,7.08-11.17,14.82-22.13,24.21-30.9,2-1.8,3.78-3.59,6.42-4.39a30.08,30.08,0,0,1-3.46,7.18c-4.28,7.77-8.89,15.55-13.17,23.32-3.3,6-6.26,12.36-7.58,19.54a33.73,33.73,0,0,0-.33,3.79c0,4.58,1.81,7.77,5.6,10.56a6,6,0,0,0,3.13,1.4,5,5,0,0,0,3.62-1.79c2.31-2.4,4.45-5,6.59-7.58,5.27-6.78,10.7-13.76,16.14-20.33a79.5,79.5,0,0,1,15-14.56,4.4,4.4,0,0,1,2.14-1,1.53,1.53,0,0,1,.83.2c-1.49,3.39-3.63,5.78-5.6,8.78-7.58,11.76-15.15,23.52-21.08,36.68a75.56,75.56,0,0,0-6.42,30.3c0,7.38,2.63,12.16,7.57,14.16a9.12,9.12,0,0,0,3.79.79,11.8,11.8,0,0,0,6.42-2.19c5.93-4,11.2-9.37,16.14-15.15,16.47-19.09,31.62-39.48,46.88-59.82a11.1,11.1,0,0,0-.28,2.4,11.6,11.6,0,0,0,2.3,7c3.63,5,6.92,7.18,10.54,7.18a12.3,12.3,0,0,0,6.42-2,95,95,0,0,0,8.24-6c4.28-3.19,8.4-6.58,12.51-10l.5.6c-.66,1.8-1.49,3.39-2.31,5.19-3.13,6.38-6.09,12.75-7.9,19.93a80.62,80.62,0,0,0-1.32,9.17v1.2c0,7.77,5.93,15.15,12.51,15.15a9.66,9.66,0,0,0,4.94-1.59,96.65,96.65,0,0,0,18.28-16.55c5.27-5.78,10.38-12,15.65-17.94l27.83-31.9c.82-.8,1.64-1.4,1.64-2.59ZM734.92,291.74c-13.84,27.91-28.66,55-46.44,79.55-9.55,13.16-19.6,25.72-32,35.29-13.66,10.76-30.95,20.33-47.91,21.33h-.17c-8.07,0-13.5-10-13.5-17.74l.16-2c3.13-18.74,15.32-34.09,25.86-46.05,31.78-35.69,77.39-59.61,118.56-80.94C738.21,285.56,736.4,288.55,734.92,291.74ZM839,257.85a21,21,0,0,1-7.74,4l-.33-1.2c4.61-13.36,11-24.52,21.91-31.3a29.6,29.6,0,0,1,7.73-3.19l2-.2c4,0,5.76,3.19,7.58,8l.32,1a3,3,0,0,1-1.31,2.2c-2.47,1.59-4.78,3.39-7.08,5Zm101.11-56.62c-.5.8-.83,1.2-1.32,1.2a2,2,0,0,1-1.32-.6c-3.45-2.19-6.91-4.39-10.37-7-2.14-1.59-3-3-3-5.38,1.16-11.76,10.21-21.13,18.78-22.13,1.31,0,2.14,1,2.63,2.59.66,2.39.66,4.79.66,8.37C946,185.88,943.22,193.66,940.09,201.23Zm193.15,56.62a21,21,0,0,1-7.74,4l-.33-1.2c4.61-13.36,11-24.52,21.9-31.3a29.52,29.52,0,0,1,7.74-3.19l2-.2c4,0,5.76,3.19,7.57,8l.33,1a3,3,0,0,1-1.32,2.2c-2.47,1.59-4.77,3.39-7.08,5Z" transform="translate(-48.26 -49.91)"/><path class="cls-1" d="M740.05,386.94V345.35H757a10.39,10.39,0,0,1,4.69,1.08,12.05,12.05,0,0,1,3.72,2.87,13.9,13.9,0,0,1,2.43,4,12.52,12.52,0,0,1,.88,4.6,14.16,14.16,0,0,1-.82,4.75,12.92,12.92,0,0,1-2.32,4,11.27,11.27,0,0,1-3.57,2.81,10.07,10.07,0,0,1-4.6,1H741.23v16.35Zm1.18-17.52h16.16a9.09,9.09,0,0,0,4.25-1,9.88,9.88,0,0,0,3.19-2.64,12.39,12.39,0,0,0,2-3.69,12.72,12.72,0,0,0,.71-4.16,11.59,11.59,0,0,0-.82-4.28,12.12,12.12,0,0,0-2.26-3.63,11.59,11.59,0,0,0-3.37-2.55,9.08,9.08,0,0,0-4.1-1H741.23Z" transform="translate(-48.26 -49.91)"/><path class="cls-1" d="M812.51,386.94h-1.17V370q0-12.78-8.43-12.77a11,11,0,0,0-4.16.82,14.67,14.67,0,0,0-3.78,2.22,15.65,15.65,0,0,0-3,3.31,13.41,13.41,0,0,0-1.87,4.13v19.22h-1.17V344.17h1.17v20.21a15.34,15.34,0,0,1,2.31-3.42,14.87,14.87,0,0,1,3.05-2.64,14.19,14.19,0,0,1,3.57-1.67,13,13,0,0,1,3.84-.58,8.23,8.23,0,0,1,7.2,3.51q2.46,3.51,2.46,10.43Z" transform="translate(-48.26 -49.91)"/><path class="cls-1" d="M847.72,387.52a12.92,12.92,0,0,1-5.63-1.26,14.93,14.93,0,0,1-4.59-3.39,16.55,16.55,0,0,1-3.11-17.11,16.56,16.56,0,0,1,3.13-5,15.1,15.1,0,0,1,4.63-3.42,12.92,12.92,0,0,1,11.13,0,14.74,14.74,0,0,1,4.6,3.42,17.17,17.17,0,0,1,3.13,5,15.81,15.81,0,0,1,1.18,6.06,16.54,16.54,0,0,1-4.25,11.05,15,15,0,0,1-4.6,3.39A12.87,12.87,0,0,1,847.72,387.52Zm-13.3-15.58a15.07,15.07,0,0,0,3.9,10.16,13.32,13.32,0,0,0,4.18,3.11,11.87,11.87,0,0,0,5.16,1.14,11.67,11.67,0,0,0,5.12-1.17,14.29,14.29,0,0,0,4.28-3.16,14.81,14.81,0,0,0,2.9-4.63,15.07,15.07,0,0,0,1-5.63,14.89,14.89,0,0,0-1-5.56,15.11,15.11,0,0,0-2.87-4.63,13.76,13.76,0,0,0-4.25-3.16,11.81,11.81,0,0,0-10.25,0,13.65,13.65,0,0,0-4.25,3.19,15.6,15.6,0,0,0-2.87,4.69A15.29,15.29,0,0,0,834.42,371.94Z" transform="translate(-48.26 -49.91)"/><path class="cls-1" d="M894.7,385.53a9.81,9.81,0,0,1-1.61.88,15.39,15.39,0,0,1-1.73.56,9,9,0,0,1-2.23.26,5.69,5.69,0,0,1-3.69-1.29,4.18,4.18,0,0,1-1.58-3.4V357.71h-4.39v-1.17h4.39V345.93H885v10.61h7.32v1.17H885v24.83a3.36,3.36,0,0,0,1.35,2.61,4.5,4.5,0,0,0,2.75.91,8.08,8.08,0,0,0,1.88-.21,10.21,10.21,0,0,0,1.55-.47,6.65,6.65,0,0,0,1.05-.49,3.35,3.35,0,0,0,.44-.3Z" transform="translate(-48.26 -49.91)"/><path class="cls-1" d="M925.1,387.52a12.84,12.84,0,0,1-5.62-1.26,15,15,0,0,1-4.6-3.39,16.55,16.55,0,0,1-3.11-17.11,16.39,16.39,0,0,1,3.14-5,15.06,15.06,0,0,1,4.62-3.42,12.92,12.92,0,0,1,11.13,0,14.74,14.74,0,0,1,4.6,3.42,17.41,17.41,0,0,1,3.14,5,15.8,15.8,0,0,1,1.17,6.06,16.41,16.41,0,0,1-4.25,11.05,15,15,0,0,1-4.6,3.39A12.84,12.84,0,0,1,925.1,387.52Zm-13.3-15.58a14.76,14.76,0,0,0,1.06,5.57,15,15,0,0,0,2.84,4.59,13.25,13.25,0,0,0,4.19,3.11,11.83,11.83,0,0,0,5.15,1.14,11.71,11.71,0,0,0,5.13-1.17,14.25,14.25,0,0,0,4.27-3.16,14.81,14.81,0,0,0,2.9-4.63,15.07,15.07,0,0,0,1.06-5.63,14.9,14.9,0,0,0-1.06-5.56,15.11,15.11,0,0,0-2.87-4.63,13.76,13.76,0,0,0-4.25-3.16,11.81,11.81,0,0,0-10.25,0,13.5,13.5,0,0,0-4.24,3.19,15.4,15.4,0,0,0-2.87,4.69A15.09,15.09,0,0,0,911.8,371.94Z" transform="translate(-48.26 -49.91)"/><path class="cls-1" d="M973.07,387.52a12.84,12.84,0,0,1-5.85-1.35,15,15,0,0,1-4.66-3.57,16.58,16.58,0,0,1-3-5,15.84,15.84,0,0,1-1.08-5.74,17.24,17.24,0,0,1,1-5.88,16.12,16.12,0,0,1,2.9-5,14.3,14.3,0,0,1,4.49-3.52,12.55,12.55,0,0,1,5.71-1.31,12.24,12.24,0,0,1,3.83.58,13.92,13.92,0,0,1,3.34,1.61,16.27,16.27,0,0,1,2.84,2.4,27.68,27.68,0,0,1,2.4,3v-7.08h1.18v31.69a11.56,11.56,0,0,1-1.12,5.21,10.68,10.68,0,0,1-3,3.69,12.77,12.77,0,0,1-4.31,2.17,18.26,18.26,0,0,1-5,.7c-3.59,0-6.4-.67-8.43-2a13.79,13.79,0,0,1-4.75-5.27l1.12-.36a10.89,10.89,0,0,0,5.12,4.95,16.85,16.85,0,0,0,11.69.82,11.34,11.34,0,0,0,3.89-2,9.83,9.83,0,0,0,2.64-3.31,10.34,10.34,0,0,0,1-4.59v-7.62a15.37,15.37,0,0,1-2.31,2.78,17,17,0,0,1-2.87,2.2,13.8,13.8,0,0,1-3.25,1.43A12,12,0,0,1,973.07,387.52Zm0-1.17a11.08,11.08,0,0,0,4.25-.85,14.06,14.06,0,0,0,3.72-2.2,13.37,13.37,0,0,0,2.72-3A6.7,6.7,0,0,0,985,377v-11a11.78,11.78,0,0,0-2-3.54,15.2,15.2,0,0,0-3-2.78,14.3,14.3,0,0,0-3.58-1.85,11.62,11.62,0,0,0-3.86-.67,11.25,11.25,0,0,0-5.51,1.32,13,13,0,0,0-4,3.39,15.48,15.48,0,0,0-2.52,4.69,16.06,16.06,0,0,0-.88,5.18,14.34,14.34,0,0,0,1.06,5.48,15.4,15.4,0,0,0,2.87,4.63,13.79,13.79,0,0,0,4.27,3.22A11.87,11.87,0,0,0,973.07,386.35Z" transform="translate(-48.26 -49.91)"/><path class="cls-1" d="M1022.45,357.71a11.92,11.92,0,0,0-7.46,2.81,13.82,13.82,0,0,0-4.37,7.2v19.22h-1.17v-30.4h1.17v7.84a15.11,15.11,0,0,1,4.25-5.3,11.32,11.32,0,0,1,5.65-2.43l1.08-.09c.34,0,.62,0,.85,0Z" transform="translate(-48.26 -49.91)"/><path class="cls-1" d="M1048.64,387.52a10.21,10.21,0,0,1-3.87-.73,9.79,9.79,0,0,1-3.13-2,9.38,9.38,0,0,1-2.08-3,8.72,8.72,0,0,1-.76-3.63,6.92,6.92,0,0,1,.91-3.52,8.29,8.29,0,0,1,2.57-2.72,13.43,13.43,0,0,1,4-1.79,18.79,18.79,0,0,1,5.06-.64,33.32,33.32,0,0,1,5.33.44,24.88,24.88,0,0,1,4.87,1.26v-3.46a12.64,12.64,0,0,0-.71-4.3,9.29,9.29,0,0,0-2-3.34,9.16,9.16,0,0,0-3.16-2.14,10.54,10.54,0,0,0-4.07-.76,13.36,13.36,0,0,0-4.75,1,23.62,23.62,0,0,0-5.09,2.79l-.71-.94q5.87-4,10.55-4a12.39,12.39,0,0,1,4.6.82,9.5,9.5,0,0,1,3.51,2.34,10.6,10.6,0,0,1,2.23,3.69,14.32,14.32,0,0,1,.79,4.86v16.81q0,1.17.93,1.17v1.18a1.74,1.74,0,0,1-.82-.12,1.86,1.86,0,0,1-.93-.85,2.67,2.67,0,0,1-.35-1.38v-2.81A13.85,13.85,0,0,1,1056,386,18.26,18.26,0,0,1,1048.64,387.52Zm0-1.17a17.34,17.34,0,0,0,7.17-1.46,10.89,10.89,0,0,0,4.84-3.93,4.18,4.18,0,0,0,.88-2.4v-6a28.05,28.05,0,0,0-10.2-1.82,18.93,18.93,0,0,0-4.65.53,11.58,11.58,0,0,0-3.58,1.52,7.65,7.65,0,0,0-2.31,2.37,5.89,5.89,0,0,0-.82,3.08,7.64,7.64,0,0,0,.67,3.19,8.21,8.21,0,0,0,1.85,2.61,8.39,8.39,0,0,0,2.75,1.73A9.33,9.33,0,0,0,1048.64,386.35Z" transform="translate(-48.26 -49.91)"/><path class="cls-1" d="M1099.19,387.52a12,12,0,0,1-3.87-.61,15.17,15.17,0,0,1-3.39-1.64,15.43,15.43,0,0,1-2.87-2.4,21.43,21.43,0,0,1-2.29-2.9v19.44h-1.17V356.54h1.17V363a13.45,13.45,0,0,1,2.29-2.78,16.66,16.66,0,0,1,2.9-2.2,13.66,13.66,0,0,1,3.25-1.44,12.24,12.24,0,0,1,3.45-.49,12.93,12.93,0,0,1,5.92,1.37,15.32,15.32,0,0,1,4.63,3.61,16.74,16.74,0,0,1,3,5,15.72,15.72,0,0,1,1.09,5.74,17.48,17.48,0,0,1-1,5.95,16.09,16.09,0,0,1-2.87,5,13.85,13.85,0,0,1-4.45,3.45A12.83,12.83,0,0,1,1099.19,387.52Zm0-1.17a11.25,11.25,0,0,0,5.36-1.26,13.33,13.33,0,0,0,4.07-3.31,15.1,15.1,0,0,0,2.61-4.66,16.09,16.09,0,0,0,.91-5.3,14.71,14.71,0,0,0-1.06-5.5,15.5,15.5,0,0,0-2.87-4.66,13.71,13.71,0,0,0-4.28-3.22,11.84,11.84,0,0,0-5.27-1.2,10.87,10.87,0,0,0-3.8.76,15.56,15.56,0,0,0-3.81,2.05,13.11,13.11,0,0,0-3,3,6.8,6.8,0,0,0-1.32,3.51v11a15.47,15.47,0,0,0,2.11,3.48,14.93,14.93,0,0,0,2.9,2.78,14.69,14.69,0,0,0,3.49,1.88A11,11,0,0,0,1099.19,386.35Z" transform="translate(-48.26 -49.91)"/><path class="cls-1" d="M1158,386.94h-1.17V370q0-12.78-8.44-12.77a11,11,0,0,0-4.15.82,14.67,14.67,0,0,0-3.78,2.22,15.65,15.65,0,0,0-3,3.31,13.41,13.41,0,0,0-1.87,4.13v19.22h-1.18V344.17h1.18v20.21a15.34,15.34,0,0,1,2.31-3.42,14.62,14.62,0,0,1,3-2.64,14.19,14.19,0,0,1,3.57-1.67,13,13,0,0,1,3.84-.58,8.23,8.23,0,0,1,7.2,3.51Q1158,363.09,1158,370Z" transform="translate(-48.26 -49.91)"/><path class="cls-1" d="M1182.72,398.83a14.49,14.49,0,0,0,1.73-.09,1.39,1.39,0,0,0,1-.5,2.38,2.38,0,0,0,.41-.67c.16-.33.41-.9.76-1.7s.84-1.91,1.47-3.34,1.44-3.29,2.46-5.59l-14.12-30.4h1.29l13.42,28.93,12.71-28.93h1.29l-18.1,41.29a3.16,3.16,0,0,1-1.94,1.88,10.11,10.11,0,0,1-2.4.29Z" transform="translate(-48.26 -49.91)"/></svg>